<svg xmlns="http://www.w3.org/2000/svg" viewBox="0 0 500 500"><g id="freepik--background-complete--inject-2"><rect y="382.4" width="500" height="0.25" style="fill:#ebebeb"></rect><rect x="333.33" y="389.21" width="73.79" height="0.25" style="fill:#ebebeb"></rect><rect x="103.62" y="390.89" width="8.69" height="0.25" style="fill:#ebebeb"></rect><rect x="408.12" y="398.49" width="19.19" height="0.25" style="fill:#ebebeb"></rect><rect x="200" y="395.11" width="48.67" height="0.25" style="fill:#ebebeb"></rect><rect x="166.72" y="395.11" width="24.38" height="0.25" style="fill:#ebebeb"></rect><rect x="52.46" y="390.89" width="33.15" height="0.25" style="fill:#ebebeb"></rect><path d="M237,337.8H43.91a5.71,5.71,0,0,1-5.7-5.71V60.66A5.71,5.71,0,0,1,43.91,55H237a5.71,5.71,0,0,1,5.71,5.71V332.09A5.71,5.71,0,0,1,237,337.8ZM43.91,55.2a5.46,5.46,0,0,0-5.45,5.46V332.09a5.46,5.46,0,0,0,5.45,5.46H237a5.47,5.47,0,0,0,5.46-5.46V60.66A5.47,5.47,0,0,0,237,55.2Z" style="fill:#ebebeb"></path><path d="M453.31,337.8H260.21a5.72,5.72,0,0,1-5.71-5.71V60.66A5.72,5.72,0,0,1,260.21,55h193.1A5.71,5.71,0,0,1,459,60.66V332.09A5.71,5.71,0,0,1,453.31,337.8ZM260.21,55.2a5.47,5.47,0,0,0-5.46,5.46V332.09a5.47,5.47,0,0,0,5.46,5.46h193.1a5.47,5.47,0,0,0,5.46-5.46V60.66a5.47,5.47,0,0,0-5.46-5.46Z" style="fill:#ebebeb"></path><rect x="132.47" y="285.33" width="17.46" height="97.07" transform="translate(282.41 667.73) rotate(180)" style="fill:#e6e6e6"></rect><polygon points="137.71 382.4 132.47 382.4 132.47 367.69 143.2 367.69 137.71 382.4" style="fill:#f0f0f0"></polygon><rect x="350.06" y="285.33" width="17.47" height="97.07" transform="translate(717.59 667.73) rotate(180)" style="fill:#e6e6e6"></rect><rect x="132.47" y="285.33" width="222.16" height="89.88" transform="translate(487.1 660.55) rotate(180)" style="fill:#f0f0f0"></rect><polygon points="349.39 382.4 354.63 382.4 354.63 367.69 343.9 367.69 349.39 382.4" style="fill:#f0f0f0"></polygon><rect x="136.53" y="291.66" width="214.03" height="35.97" transform="translate(487.1 619.29) rotate(180)" style="fill:#e6e6e6"></rect><path d="M167.9,302.84H315.68c5.11,0,10-4.44,13.51-12.27H154.4C157.91,298.4,162.8,302.84,167.9,302.84Z" style="fill:#f0f0f0"></path><rect x="136.53" y="333.44" width="214.03" height="35.97" transform="translate(487.1 702.84) rotate(180)" style="fill:#e6e6e6"></rect><path d="M167.9,344.62H315.68c5.11,0,10-4.44,13.51-12.27H154.4C157.91,340.18,162.8,344.62,167.9,344.62Z" style="fill:#f0f0f0"></path><rect x="53.07" y="78.88" width="393.85" height="163.9" style="fill:#f0f0f0"></rect><rect x="175.75" y="-28.39" width="148.49" height="378.44" transform="translate(410.83 -89.17) rotate(90)" style="fill:#fafafa"></rect><polygon points="110.6 235.08 149.42 86.59 178.04 86.59 139.22 235.08 110.6 235.08" style="fill:#fff"></polygon><polygon points="145.82 235.08 184.65 86.59 197.45 86.59 158.63 235.08 145.82 235.08" style="fill:#fff"></polygon><polygon points="208.47 235.08 247.29 86.59 275.91 86.59 237.09 235.08 208.47 235.08" style="fill:#fff"></polygon><polygon points="280.64 235.08 319.46 86.59 332.26 86.59 293.44 235.08 280.64 235.08" style="fill:#fff"></polygon><rect x="86.94" y="159.85" width="148.49" height="1.96" transform="translate(322.01 -0.35) rotate(90)" style="fill:#e0e0e0"></rect><rect x="-12.49" y="159.85" width="148.49" height="1.96" transform="translate(222.59 99.07) rotate(90)" style="fill:#e0e0e0"></rect><rect x="82.11" y="156.98" width="148.49" height="7.71" transform="translate(317.18 4.48) rotate(90)" style="fill:#f0f0f0"></rect><rect x="182.48" y="159.85" width="148.49" height="1.96" transform="translate(417.56 -95.9) rotate(90)" style="fill:#e0e0e0"></rect><rect x="177.65" y="156.98" width="148.49" height="7.71" transform="translate(412.73 -91.07) rotate(90)" style="fill:#f0f0f0"></rect><rect x="278.07" y="159.85" width="148.49" height="1.96" transform="translate(513.15 -191.49) rotate(90)" style="fill:#e0e0e0"></rect><rect x="273.24" y="156.98" width="148.49" height="7.71" transform="translate(508.32 -186.65) rotate(90)" style="fill:#f0f0f0"></rect><rect x="365.95" y="159.85" width="163.9" height="1.96" transform="translate(608.74 -287.07) rotate(90)" style="fill:#e0e0e0"></rect><path d="M453.29,74.35H46.71A1.72,1.72,0,0,1,45,72.64h0a1.72,1.72,0,0,1,1.71-1.71H453.29A1.72,1.72,0,0,1,455,72.64h0A1.72,1.72,0,0,1,453.29,74.35Z" style="fill:#e0e0e0"></path><g style="opacity:0.6000000000000001"><rect x="48.3" y="67.63" width="83.17" height="231.79" style="fill:#f5f5f5"></rect><polygon points="93.38 301.86 86.4 301.86 88.36 70.07 91.48 70.07 93.38 301.86" style="fill:#e6e6e6"></polygon><polygon points="70.29 301.86 66.92 301.86 67.87 70.07 69.37 70.07 70.29 301.86" style="fill:#e6e6e6"></polygon><polygon points="116.52 301.86 113.16 301.86 114.1 70.07 115.61 70.07 116.52 301.86" style="fill:#e6e6e6"></polygon></g><g style="opacity:0.6000000000000001"><rect x="367.53" y="67.63" width="83.17" height="231.79" style="fill:#f5f5f5"></rect><polygon points="400.12 301.86 393.15 301.86 395.11 70.07 398.23 70.07 400.12 301.86" style="fill:#e6e6e6"></polygon><polygon points="384.74 301.86 381.38 301.86 382.32 70.07 383.83 70.07 384.74 301.86" style="fill:#e6e6e6"></polygon><polygon points="420.34 301.86 416.97 301.86 417.92 70.07 419.42 70.07 420.34 301.86" style="fill:#e6e6e6"></polygon><polygon points="437.46 301.86 434.1 301.86 435.04 70.07 436.55 70.07 437.46 301.86" style="fill:#e6e6e6"></polygon></g></g><g id="freepik--Shadow--inject-2"><ellipse id="freepik--path--inject-2" cx="250" cy="416.24" rx="193.89" ry="11.32" style="fill:#f5f5f5"></ellipse></g><g id="freepik--Screen--inject-2"><rect x="392.13" y="296.11" width="13.46" height="1" transform="translate(72.9 671.87) rotate(-85.66)" style="fill:#263238"></rect><polygon points="396.13 339.12 383.51 339.12 383.51 338.12 395.2 338.12 397.42 309 398.41 309.08 396.13 339.12" style="fill:#263238"></polygon><polygon points="392.88 335.62 175.17 335.62 191.72 117.9 409.44 117.9 392.88 335.62" style="fill:#263238"></polygon><polygon points="275.18 335.62 250.21 335.62 355.9 117.9 380.86 117.9 275.18 335.62" style="fill:#fff;opacity:0.1"></polygon><polygon points="245.17 335.62 220.21 335.62 325.9 117.9 350.86 117.9 245.17 335.62" style="fill:#fff;opacity:0.1"></polygon><polygon points="395.91 295.82 178.19 295.82 178.52 291.44 396.24 291.44 395.91 295.82" style="fill:#fff"></polygon><polygon points="227.28 295.82 178.19 295.82 178.52 291.44 227.61 291.44 227.28 295.82" style="fill:#843EFB"></polygon><path d="M227.11,298.05h0a1.51,1.51,0,0,1-1.52-1.65l.42-5.53a1.82,1.82,0,0,1,1.77-1.65h0a1.51,1.51,0,0,1,1.52,1.65l-.42,5.53A1.82,1.82,0,0,1,227.11,298.05Z" style="fill:#843EFB"></path><path d="M296.78,167.78c-20.49,0-38.37,16.62-39.93,37.11S270.64,242,291.14,242s38.38-16.61,39.93-37.11S317.28,167.78,296.78,167.78Zm-5.29,69.64c-18,0-31.42-14.56-30.05-32.53s17-32.52,35-32.52,31.42,14.56,30.06,32.52S309.46,237.42,291.49,237.42Z" style="fill:#fff"></path><path d="M309,200.69l-19.86-12a4.71,4.71,0,0,0-7.12,3.67l-1.82,24a4.7,4.7,0,0,0,7,4.47l21.69-12A4.7,4.7,0,0,0,309,200.69Z" style="fill:#fff"></path><path d="M206.27,312.94,196.42,307a2.33,2.33,0,0,0-3.53,1.82L192,320.7a2.34,2.34,0,0,0,3.46,2.22L206.19,317A2.33,2.33,0,0,0,206.27,312.94Z" style="fill:#fff"></path><path d="M276.93,312.94,267.08,307a2.33,2.33,0,0,0-3.53,1.82l-.9,11.89a2.33,2.33,0,0,0,3.45,2.22L276.85,317A2.32,2.32,0,0,0,276.93,312.94Z" style="fill:#fff"></path><path d="M285.49,312.94,275.65,307a2.33,2.33,0,0,0-3.53,1.82l-.91,11.89a2.34,2.34,0,0,0,3.46,2.22L285.42,317A2.32,2.32,0,0,0,285.49,312.94Z" style="fill:#fff"></path><path d="M229.17,323.35h0a2,2,0,0,1-2-2.14l.93-12.33a2.37,2.37,0,0,1,2.31-2.14h0a2,2,0,0,1,2,2.14l-.94,12.33A2.36,2.36,0,0,1,229.17,323.35Z" style="fill:#fff"></path><path d="M237,323.35h0a2,2,0,0,1-2-2.14l.94-12.33a2.36,2.36,0,0,1,2.3-2.14h0a2,2,0,0,1,2,2.14l-.94,12.33A2.36,2.36,0,0,1,237,323.35Z" style="fill:#fff"></path><path d="M284.11,323.35h0a2,2,0,0,1-2-2.14l.93-12.33a2.37,2.37,0,0,1,2.31-2.14h0a2,2,0,0,1,2,2.14l-.93,12.33A2.37,2.37,0,0,1,284.11,323.35Z" style="fill:#fff"></path><path d="M376.71,322.49H354.05a3,3,0,0,1-3-3.25l.65-8.44a3.57,3.57,0,0,1,3.5-3.25h22.66a3,3,0,0,1,3,3.25l-.64,8.44A3.57,3.57,0,0,1,376.71,322.49ZM355.07,309a2,2,0,0,0-1.9,1.76l-.64,8.44a1.62,1.62,0,0,0,1.63,1.76h22.67a1.93,1.93,0,0,0,1.89-1.76l.65-8.44a1.62,1.62,0,0,0-1.64-1.76Z" style="fill:#fff"></path></g><g id="freepik--Character--inject-2"><path d="M178,92c-13.33,3.48-14.58,32-27.17,27s-15.29,14.51,10.67,13.05c-4.71,7.13,9.21,13,25.13,4.7.49,6.66,19.8,11.55,17.95-5.72s6.5-29.71-5.53-33.9C194.23,88.38,179.4,90.91,178,92Z" style="fill:#843EFB"></path><path d="M178,92c-13.33,3.48-14.58,32-27.17,27s-15.29,14.51,10.67,13.05c-4.71,7.13,9.21,13,25.13,4.7.49,6.66,19.8,11.55,17.95-5.72s6.5-29.71-5.53-33.9C194.23,88.38,179.4,90.91,178,92Z" style="opacity:0.5"></path><path d="M158.14,416.23c7.74,0,8.76-.12,13.11-.27,3.72-.13,4.61.33,7.61.27,2.5-.06,2.4-2.45,1.63-5.2-.38-1.38-1-4.31-1.51-6.54l-11.34-.82c-1.59,3-5.19,7.39-9.55,8C153.92,412.2,155.06,416.23,158.14,416.23Z" style="fill:#263238"></path><path d="M165.09,390.21c5.59-5.16,8.94-10.39,11.41-13.89,2.11-3,2.52-2.25,4.76-5.21,1.49-2,.12-4.74-2-5.35a33,33,0,0,1-5.79-1.73l-7.72,5.7c1.41,3.64-.46,13.9-4.44,18.11C158.45,390.86,162.85,392.26,165.09,390.21Z" style="fill:#263238"></path><path d="M139.14,202.67S116.9,266.25,114,289.52c-2.81,22.76,52.3,81.94,52.3,81.94,1.34,1,6.86-5.86,7.17-7.66-13.69-26.47-22.21-65.66-36-75.27,33-48.89,37.57-80.16,37.57-80.16Z" style="fill:#843EFB"></path><path d="M139.14,202.67S116.9,266.25,114,289.52c-2.81,22.76,52.3,81.94,52.3,81.94,1.34,1,6.86-5.86,7.17-7.66-13.69-26.47-22.21-65.66-36-75.27,33-48.89,37.57-80.16,37.57-80.16Z" style="fill:#fff;opacity:0.6000000000000001"></path><path d="M154.77,225s-1.81,23.38-2.28,39.28c4.35-7.76,7.89-14.84,10.75-21.16Z" style="fill:#843EFB;opacity:0.30000000000000004"></path><path d="M159.55,364.66c1.19,1.63,3.32,4.53,4.85,6.72.5.72,1.26,1.1,1.72.89,3.44-1.6,7.56-6,8.88-7.42.27-.29.2-.88-.15-1.46l-3.77-6.25c-.51-.85-1.43-1.35-1.9-1l-9.83,6.8C159,363.2,159,364,159.55,364.66Z" style="fill:#843EFB"></path><path d="M149.93,204.38s8.27,64,13,94.84c5,32.36,5.61,84.29,4.37,105.45,1.81,1.05,8.38.32,11.95-.8,0,0,21.48-69.41,5.71-101.45,10.2-74.88-4.57-93.21-4.57-93.21Z" style="fill:#843EFB"></path><path d="M149.93,204.38s8.27,64,13,94.84c5,32.36,5.61,84.29,4.37,105.45,1.81,1.05,8.38.32,11.95-.8,0,0,21.48-69.41,5.71-101.45,10.2-74.88-4.57-93.21-4.57-93.21Z" style="fill:#fff;opacity:0.6000000000000001"></path><path d="M166.83,395.71c-.22,1.89-.66,5.17-1.23,7.66a1.68,1.68,0,0,0,.69,2c4.82,1.71,12.14.64,14.47.23a1.47,1.47,0,0,0,1-1.24l1.44-7.14c.2-1-.21-1.91-.86-1.95l-14.3-1C167.44,394.23,166.93,394.86,166.83,395.71Z" style="fill:#843EFB"></path><path d="M160.27,150.44l.15.61.1.48.17.9c.1.59.18,1.17.25,1.74.12,1.15.2,2.29.21,3.43a37,37,0,0,1-.51,6.81,35.76,35.76,0,0,1-4.78,12.86,36.85,36.85,0,0,1-4.12,5.46c-.76.84-1.57,1.62-2.39,2.39l-1.26,1.1c-.45.36-.94.71-1.45,1a17.29,17.29,0,0,1-7.41,2.84,10.86,10.86,0,0,1-4.66-.46,9,9,0,0,1-2.17-1.1,9.81,9.81,0,0,1-1-.77c-.15-.15-.29-.3-.44-.47l-.54-.64a3.13,3.13,0,1,1,4.54-4.32c-.11-.14-.05-.11-.06-.14s0,0,.06,0l.14,0,.3-.08a3.46,3.46,0,0,0,.56-.23,8,8,0,0,0,1-.71,19.27,19.27,0,0,0,2.64-2.53c.25-.26.47-.55.74-.83l.83-.87c.52-.6,1.05-1.19,1.52-1.82a26.15,26.15,0,0,0,2.53-3.89,27.06,27.06,0,0,0,2.79-8.72,31.17,31.17,0,0,0,.29-4.64c0-.77,0-1.55-.12-2.3l-.13-1.11-.12-.83-.11-.73a6.31,6.31,0,0,1,12.37-2.39Z" style="fill:#ce7a63"></path><path d="M144.51,155.83a127.79,127.79,0,0,0-2.73,16.82c-1,8.25-1.69,16.4-2.64,30l41.26,6.54c1-11.76,4.46-24.79,16-49.77a9.74,9.74,0,0,0-6.25-13.81c-1.6-.42-3.32-.83-5.08-1.2a133.54,133.54,0,0,0-18.74-3c-2.06-.13-4.21-.21-6.28-.25C152.62,141.07,145.89,148.6,144.51,155.83Z" style="fill:#843EFB"></path><path d="M187.1,123.13c-2.58,5.77-6.33,16.49-3,21.14,0,0-5.58-1.77-18.89,3.81-2.71-5.59.15-6.78.15-6.78,7.1-.52,8.09-5.48,8-10.29Z" style="fill:#ce7a63"></path><path d="M168,147c3.9,1.2,4.2,7.43,4.2,7.43s10.66-5.27,14.46-9.57a38.65,38.65,0,0,1-3.15-2.78S170.65,145,168,147Z" style="fill:#fff"></path><path d="M164.26,145.73s-3.6.39-5.62,5c.48-8.94,4.83-9.78,4.83-9.78a5.13,5.13,0,0,1,3.69,0A4.33,4.33,0,0,0,164.26,145.73Z" style="fill:#fff"></path><path d="M181.48,126.34,173.32,131a19.88,19.88,0,0,1-.19,3.38c2.65,0,6.83-2.19,7.73-4.8A9.15,9.15,0,0,0,181.48,126.34Z" style="opacity:0.2"></path><path d="M194.17,111.84c-3.37,9.45-4.6,13.5-10.89,17.29-9.47,5.7-20.36.17-19.88-9.93.42-9.08,5.86-23,16.4-24.63A12.85,12.85,0,0,1,194.17,111.84Z" style="fill:#ce7a63"></path><path d="M183.06,90.08c-7.33,0-18.06,6.75-8.74,8.75-.09,3,5.39,3.25,9.44,1.84-.66,2.17,2.86,6.68,7.92,5.54-3,1.46-3.48,9,0,9.54s10.72,2.85,10-9.54S190.9,90.08,183.06,90.08Z" style="fill:#843EFB"></path><path d="M183.06,90.08c-7.33,0-18.06,6.75-8.74,8.75-.09,3,5.39,3.25,9.44,1.84-.66,2.17,2.86,6.68,7.92,5.54-3,1.46-3.48,9,0,9.54s10.72,2.85,10-9.54S190.9,90.08,183.06,90.08Z" style="opacity:0.5"></path><path d="M202.81,80.25c-9.43-5.88-18.33,4-16.58,9.5l13.11,6C206.53,96,211,85.33,202.81,80.25Z" style="fill:#843EFB"></path><path d="M202.81,80.25c-9.43-5.88-18.33,4-16.58,9.5l13.11,6C206.53,96,211,85.33,202.81,80.25Z" style="opacity:0.5"></path><path d="M190.1,92.5c-3.57-1.12-7.53-1.67-5-3.12s8.38,0,11.64,2.29c3.54,2.5,5.55,6.59,2.42,6.07S197.77,94.9,190.1,92.5Z" style="fill:#843EFB"></path><path d="M181.48,111.5c-.25.8-.87,1.35-1.4,1.23s-.74-.87-.49-1.68.87-1.36,1.39-1.23S181.73,110.69,181.48,111.5Z" style="fill:#263238"></path><path d="M171.4,108.8c-.25.81-.87,1.36-1.39,1.24s-.74-.88-.49-1.68.87-1.36,1.39-1.24S171.65,108,171.4,108.8Z" style="fill:#263238"></path><path d="M171.13,107.22l-1.75-1S169.9,108,171.13,107.22Z" style="fill:#263238"></path><path d="M174,111.3a25,25,0,0,1-4.42,4.47c.74,1.24,2.67,1.2,2.67,1.2Z" style="fill:#ba4d3c"></path><path d="M175.87,121a7.51,7.51,0,0,1-1.37-.19.24.24,0,0,1-.17-.3.27.27,0,0,1,.31-.18,7,7,0,0,0,5.92-1.28.25.25,0,0,1,.35,0,.24.24,0,0,1,0,.34A7.34,7.34,0,0,1,175.87,121Z" style="fill:#263238"></path><path d="M195.07,120.48a8,8,0,0,1-5.64,2.44c-2.73,0-3.16-2.82-1.63-5.16,1.38-2.11,4.46-4.64,6.82-3.49S197,118.54,195.07,120.48Z" style="fill:#ce7a63"></path><path d="M184.53,106.8a.4.4,0,0,1-.31-.2,3.6,3.6,0,0,0-3-1.7.45.45,0,0,1-.47-.47.51.51,0,0,1,.5-.5,4.46,4.46,0,0,1,3.77,2.11.51.51,0,0,1-.17.68A.52.52,0,0,1,184.53,106.8Z" style="fill:#263238"></path><path d="M168.88,102.53a.47.47,0,0,1-.33-.14.48.48,0,0,1,0-.69,5.11,5.11,0,0,1,4.31-1.48.44.44,0,0,1,.34.57.53.53,0,0,1-.6.38,4.13,4.13,0,0,0-3.41,1.21A.51.51,0,0,1,168.88,102.53Z" style="fill:#263238"></path><path d="M181.2,109.92l-1.74-1S180,110.65,181.2,109.92Z" style="fill:#263238"></path><path d="M125.28,179.77l.42,2.69a3.16,3.16,0,0,0,1.72,2.34l4.29,2.13a5.87,5.87,0,0,0,5.42-.08l1-.55c-.4-4.51-4.16-9.09-4.16-9.09l-.93-1.42a2.63,2.63,0,0,0-3.65-.86l-2.84,1.8A3,3,0,0,0,125.28,179.77Z" style="fill:#ce7a63"></path><path d="M142.27,186.85h-9.84a2.19,2.19,0,0,1-2-1.68l-4.56-21.3a1.31,1.31,0,0,1,1.32-1.68H137a2.2,2.2,0,0,1,2,1.68l4.56,21.3A1.32,1.32,0,0,1,142.27,186.85Z" style="fill:#263238"></path><path d="M139,174.3l3-.67a3.61,3.61,0,0,1,3.21.84l4.08,3.66a6.8,6.8,0,0,1,2.19,5.81l-.16,1.34c-5,1.47-11.42-.61-11.42-.61l-1.9-.38a3,3,0,0,1-2.45-3.53l.72-3.78A3.49,3.49,0,0,1,139,174.3Z" style="fill:#ce7a63"></path><path d="M197,166.89c-.19.86-.36,1.53-.56,2.27s-.4,1.44-.61,2.15c-.43,1.41-.88,2.82-1.35,4.22-1,2.78-2.05,5.54-3.28,8.25a83,83,0,0,1-4.13,8,64.4,64.4,0,0,1-5.25,7.6l-.15.19a5.48,5.48,0,0,1-.67.69,9.53,9.53,0,0,1-4.91,2.1,12.52,12.52,0,0,1-3.84-.12,23.06,23.06,0,0,1-5.45-1.81,53.51,53.51,0,0,1-8.34-5c-2.54-1.83-4.93-3.75-7.22-5.76-1.15-1-2.26-2-3.36-3.09s-2.18-2.09-3.26-3.24a3.16,3.16,0,0,1,4-4.84l.06.05c2.42,1.52,4.9,3.11,7.38,4.57s4.95,2.92,7.44,4.22a52.47,52.47,0,0,0,7.32,3.27,11.71,11.71,0,0,0,3,.69c.37,0,.62,0,.58-.06a1.45,1.45,0,0,0-.89.37l-.83.88a65.93,65.93,0,0,0,3.79-6.53c1.13-2.31,2.21-4.68,3.19-7.12s1.88-4.92,2.72-7.43c.43-1.25.84-2.51,1.22-3.77l.56-1.89.51-1.79.07-.24A6.32,6.32,0,0,1,197,166.89Z" style="fill:#ce7a63"></path><path d="M193.35,147.11c7,5,7.38,12.42,3.57,26.67-5.08,2.55-17.44-.68-17.44-.68S183.38,151,193.35,147.11Z" style="fill:#843EFB"></path><path d="M157.55,141.54c-8.6.66-12.71,6.87-16.77,21.05,3.05,4.8,15.32,8.38,15.32,8.38S164.12,150,157.55,141.54Z" style="fill:#843EFB"></path></g></svg>