<?xml version="1.0" standalone="no"?><!DOCTYPE svg PUBLIC "-//W3C//DTD SVG 1.1//EN" "http://www.w3.org/Graphics/SVG/1.1/DTD/svg11.dtd" ><svg xmlns="http://www.w3.org/2000/svg"><metadata></metadata><defs><font id="fonteditor" horiz-adv-x="1024"><font-face font-family="lINê|W{" font-weight="400" font-stretch="normal" units-per-em="1024" panose-1="2 1 6 0 0 1 1 1 1 1" ascent="819" descent="-204" x-height="1" bbox="0 -206 1024 819" underline-thickness="0" underline-position="0" unicode-range="U+0022-ff1f" /><missing-glyph horiz-adv-x="1024"  /><glyph glyph-name="quotedbl" unicode="&quot;" d="M148 449 L107 685 Q105 694 105 705 Q105 716 107 726 Q111 743 126.5 755.5 Q142 768 166 767 Q188 766 201.5 754 Q215 742 219 728.5 Q223 715 222.5 702.5 Q222 690 221 680 L180 451 Q177 435 173.5 428 Q170 421 164 420.5 Q158 420 154 427.5 Q150 435 148 449 ZM328 454 L292 685 Q289 700 289.5 710.5 Q290 721 295.5 734 Q301 747 315 756.5 Q329 766 350 766.5 Q371 767 387 755 Q399 744 404.5 729 Q410 714 409.5 703.5 Q409 693 408 684 L362 456 Q358 437 354 429 Q350 421 344.5 420.5 Q339 420 335 426.5 Q331 433 328 454 Z" /><glyph glyph-name="hyphen" unicode="-" d="M658 350 L658 264 L43 264 L43 350 L658 350 Z" /><glyph glyph-name="emdash" unicode="&#x2014;" d="M0 262 L0 348 L1024 348 L1024 262 L0 262 Z" /><glyph glyph-name="uni3001" unicode="&#x3001;" d="M360 -112 Q357 -128 343 -142 Q329 -156 308 -154 Q291 -154 281.5 -146 Q272 -138 256.5 -119 Q241 -100 215.5 -79 Q190 -58 169.5 -45.5 Q149 -33 143.5 -24.5 Q138 -16 137 -2 Q136 12 145 29 Q154 46 171 51 Q183 54 200 48.5 Q217 43 238.5 27.5 Q260 12 279.5 -3.5 Q299 -19 323 -39.5 Q347 -60 355 -76.5 Q363 -93 360 -112 Z" /><glyph glyph-name="uni3002" unicode="&#x3002;" d="M246 -154 Q186 -155 152 -118.5 Q118 -82 118 -32 Q118 18 152 56.5 Q186 95 241 95.5 Q296 96 334 58.5 Q372 21 372.5 -31 Q373 -83 334.5 -118.5 Q296 -154 246 -154 ZM167 -28 Q166 -60 189 -83.5 Q212 -107 245 -106.5 Q278 -106 300.5 -83.5 Q323 -61 322.5 -29.5 Q322 2 297.5 24 Q273 46 244 46 Q210 45 188.5 22.5 Q167 0 167 -28 Z" /><glyph glyph-name="uni300C" unicode="&#x300c;" d="M648 -117 L648 701 Q648 717 653 730 Q658 743 667 751.5 Q676 760 685.5 762.5 Q695 765 712 765 L936 765 Q952 765 963 753.5 Q974 742 974 726 Q973 708 961.5 697 Q950 686 936 686 L749 686 Q733 686 729 679 Q725 672 725 662 L725 -117 Q725 -130 714.5 -142 Q704 -154 683.5 -154.5 Q663 -155 655.5 -142 Q648 -129 648 -117 Z" /><glyph glyph-name="uni300D" unicode="&#x300d;" d="M376 728 L376 -90 Q376 -107 370.5 -120 Q365 -133 356 -141.5 Q347 -150 337.5 -152 Q328 -154 312 -154 L87 -154 Q71 -154 60.5 -143 Q50 -132 50 -115 Q50 -98 60.5 -86.5 Q71 -75 87 -75 L275 -75 Q289 -75 293.5 -68.5 Q298 -62 298 -51 L298 728 Q298 741 308.5 752.5 Q319 764 338.5 764.5 Q358 765 367 752 Q376 739 376 728 Z" /><glyph glyph-name="uni4E00" unicode="&#x4e00;" d="M141 370 L862 370 Q895 370 915 350 Q935 330 935 301 Q934 271 913.5 252 Q893 233 862 233 L141 233 Q112 233 91.5 250.5 Q71 268 71 300 Q71 332 89.5 351 Q108 370 141 370 Z" /><glyph glyph-name="uni4E09" unicode="&#x4e09;" d="M177 672 L832 672 Q859 672 877.5 654 Q896 636 896.5 611 Q897 586 881.5 565.5 Q866 545 832 545 L177 545 Q151 545 133.5 564.5 Q116 584 115.5 607 Q115 630 131 651 Q147 672 177 672 ZM254 372 L759 372 Q785 372 804.5 352.5 Q824 333 824.5 309 Q825 285 809 265 Q793 245 759 245 L254 245 Q229 245 211.5 263.5 Q194 282 193.5 306 Q193 330 209 351 Q225 372 254 372 ZM135 44 L887 44 Q912 44 929.5 24.5 Q947 5 947.5 -21 Q948 -47 930 -66 Q912 -85 887 -85 L135 -85 Q108 -85 92 -66.5 Q76 -48 76 -19 Q76 4 92.5 24 Q109 44 135 44 Z" /><glyph glyph-name="uni4E0A" unicode="&#x4e0a;" d="M425 7 L425 692 Q425 725 442 746 Q459 767 488 767.5 Q517 768 537 746 Q557 724 557 692 L557 474 L794 474 Q825 474 844.5 454 Q864 434 864.5 410 Q865 386 845.5 367 Q826 348 794 348 L557 348 L557 7 L897 7 Q925 7 943 -10.5 Q961 -28 961.5 -55.5 Q962 -83 942.5 -99 Q923 -115 897 -115 L107 -115 Q82 -115 65 -96.5 Q48 -78 48 -53 Q48 -28 64.5 -10.5 Q81 7 107 7 L425 7 Z" /><glyph glyph-name="uni4E0B" unicode="&#x4e0b;" d="M569 587 L569 -100 Q569 -126 549 -145 Q529 -164 496 -162 Q472 -162 451.5 -146.5 Q431 -131 431 -100 L431 587 L115 586 Q76 585 61 607 Q46 629 46 652 Q46 677 63 695.5 Q80 714 115 714 L896 714 Q932 714 951.5 696.5 Q971 679 971.5 650 Q972 621 950.5 603 Q929 585 896 586 L569 587 ZM601 367 Q597 395 616.5 414 Q636 433 662 434 Q678 434 693 426.5 Q708 419 751.5 382.5 Q795 346 835.5 298.5 Q876 251 886.5 232 Q897 213 897.5 186.5 Q898 160 879.5 142 Q861 124 837 125 Q814 125 790.5 141.5 Q767 158 743 188 L697 243 L629 316 Q602 353 601 367 Z" /><glyph glyph-name="uni4E0E" unicode="&#x4e0e;" d="M110 164 L705 164 Q721 164 736 149 Q751 134 751 107 Q750 78 734.5 63.5 Q719 49 707 49 L110 49 Q101 49 85.5 59.5 Q70 70 70 104.5 Q70 139 83.5 151.5 Q97 164 110 164 ZM369 650 L846 650 Q866 650 880 633.5 Q894 617 894.5 593 Q895 569 880 551 Q865 533 846 533 L355 533 L345 424 Q342 400 367 400 L805 400 Q877 400 904.5 376 Q932 352 938 328 Q944 304 944 291 L943 200 Q942 155 938 91 Q934 27 928 -8.5 Q922 -44 894 -96.5 Q866 -149 721 -161 Q657 -167 635.5 -150 Q614 -133 609 -104.5 Q604 -76 617.5 -56.5 Q631 -37 657 -32 Q662 -31 707.5 -32.5 Q753 -34 774 -15.5 Q795 3 800.5 27.5 Q806 52 810.5 97 Q815 142 815 156 L815 243 Q815 280 790 280 L348 280 Q269 280 247.5 300.5 Q226 321 221.5 348 Q217 375 220 405 L250 719 Q252 741 274.5 755 Q297 769 321 767 Q340 765 360 750 Q380 735 378 719 L369 650 Z" /><glyph glyph-name="uni4E24" unicode="&#x4e24;" d="M227 89 L227 -93 Q227 -144 165.5 -142.5 Q104 -141 104 -93 L104 390 Q104 417 113 442.5 Q122 468 146 489.5 Q170 511 240 511 L320 511 L321 601 L109 601 Q84 601 70 620 Q56 639 57 660 Q58 687 75.5 700.5 Q93 714 110 714 L895 714 Q920 714 938 695.5 Q956 677 954 654 Q950 619 928 610 Q906 601 895 601 L689 601 L688 511 L774 511 Q848 511 873 489 Q898 467 904.5 437 Q911 407 911 390 L911 -46 Q911 -107 866 -125 Q821 -143 768.5 -147.5 Q716 -152 700 -140 Q676 -124 678 -85 Q678 -63 687 -44.5 Q696 -26 706 -22 Q710 -21 742 -22.5 Q774 -24 783.5 -14.5 Q793 -5 793 17 L793 110 Q787 98 768 80 Q749 62 728.5 71 Q708 80 702 88 Q696 96 689.5 120.5 Q683 145 649 216 Q642 195 630.5 164 Q619 133 575.5 71.5 Q532 10 498.5 -8 Q465 -26 443.5 -22 Q422 -18 403.5 14 Q385 46 421 78 L453 102 Q477 121 511 173 Q482 148 456.5 155.5 Q431 163 424 199 L416 240 L411 257 Q380 174 356.5 126.5 Q333 79 307 61.5 Q281 44 257.5 58 Q234 72 227 89 ZM227 140 Q228 143 230.5 149 Q233 155 260 194 Q287 233 298 279 Q309 325 312 353 L317 399 L257 399 Q233 399 230 389.5 Q227 380 227 358 L227 140 ZM424 333 Q461 361 490 324 Q498 313 508.5 280.5 Q519 248 521 242 L529 207 Q538 232 545.5 258.5 Q553 285 558 321 Q563 357 566 399 L432 399 L424 333 ZM437 511 L572 511 Q574 555 574 568 L574 601 L440 601 L437 511 ZM669 301 Q687 312 701 311 Q716 308 730 292 Q744 276 764 229 L785 179 L793 154 L794 372 Q794 399 767 399 L682 399 Q677 351 669 301 Z" /><glyph glyph-name="uni4E2A" unicode="&#x4e2a;" d="M578 740 Q595 704 625 661 Q655 618 689.5 580 Q724 542 783.5 504.5 Q843 467 876 456 L947 432 Q974 419 983 402.5 Q992 386 979 340.5 Q966 295 913 302 Q879 305 803.5 347 Q728 389 679 426 Q630 463 591.5 510 Q553 557 508 633 Q397 471 263.5 380 Q130 289 107 292 Q74 295 60.5 325 Q47 355 48 375 Q48 386 54 395.5 Q60 405 72 412 Q84 419 174.5 466 Q265 513 331.5 608.5 Q398 704 410.5 732.5 Q423 761 436.5 782 Q450 803 503 800 Q532 798 550.5 786.5 Q569 775 578 740 ZM453 -110 L453 410 Q453 429 466.5 443.5 Q480 458 513.5 458.5 Q547 459 564 443.5 Q581 428 581 409 L581 -108 Q581 -130 559.5 -147 Q538 -164 512 -162 Q473 -161 463 -142.5 Q453 -124 453 -110 Z" /><glyph glyph-name="uni4E2D" unicode="&#x4e2d;" d="M438 583 L438 704 Q438 726 455 746 Q472 766 503.5 767.5 Q535 769 554 747 Q573 725 573 704 L573 583 L769 583 Q857 583 887 554 Q917 525 922.5 495 Q928 465 928 431 L928 302 Q928 266 922.5 238 Q917 210 888.5 184.5 Q860 159 769 159 L573 159 L573 -97 Q573 -126 553 -144.5 Q533 -163 501 -161 Q471 -160 454.5 -142.5 Q438 -125 438 -97 L438 159 L246 159 Q168 159 138 182 Q108 205 100.5 236 Q93 267 93 302 L93 431 Q93 458 97.5 489.5 Q102 521 131 552 Q160 583 246 583 L438 583 ZM438 282 L438 461 L288 461 Q234 461 227.5 439 Q221 417 221 394 L221 350 Q221 325 225.5 303.5 Q230 282 288 282 L438 282 ZM573 461 L573 282 L729 282 Q783 282 789.5 303 Q796 324 796 350 L796 394 Q796 414 792 437.5 Q788 461 729 461 L573 461 Z" /><glyph glyph-name="uni4E3A" unicode="&#x4e3a;" d="M430 382 L130 382 Q74 382 73.5 425 Q73 468 88.5 484 Q104 500 130 500 L461 499 Q464 510 466.5 519 Q469 528 479.5 591.5 Q490 655 492 681.5 Q494 708 503.5 737.5 Q513 767 555 767.5 Q597 768 616 747.5 Q635 727 635.5 709.5 Q636 692 634.5 682 Q633 672 616 587 L598 499 L783 500 Q869 500 897 476.5 Q925 453 928 411.5 Q931 370 928 296 Q922 198 919 146.5 Q916 95 905 34.5 Q894 -26 851 -95 Q808 -164 643 -159 Q588 -158 573.5 -136 Q559 -114 560 -85 Q561 -35 606 -27 Q614 -26 634.5 -27.5 Q655 -29 670 -27 Q734 -22 758 20 Q782 62 788.5 123.5 Q795 185 797.5 238.5 Q800 292 801 310 Q802 328 800 341 Q791 382 746 382 L564 382 Q528 272 473.5 180.5 Q419 89 370.5 33 Q322 -23 251 -77.5 Q180 -132 147 -135 Q96 -141 80.5 -105.5 Q65 -70 73 -48 Q78 -34 90 -24.5 Q102 -15 138 4.5 Q174 24 237 72 Q300 120 350 211.5 Q400 303 430 382 ZM513 242 Q516 257 530.5 272.5 Q545 288 567.5 291 Q590 294 611 279 Q625 268 653.5 223.5 Q682 179 693 154.5 Q704 130 705 95.5 Q706 61 653 53 Q613 47 590 82 L560 140 Q552 154 530 187 Q508 220 513 242 ZM201 706 Q201 721 208.5 735.5 Q216 750 235.5 760 Q255 770 275 767 Q304 761 352.5 696 Q401 631 408 604.5 Q415 578 402 557 Q383 526 344 527 Q322 527 311 536 Q300 545 291 559 L256 613 Q239 638 224 656.5 Q209 675 204.5 685.5 Q200 696 201 706 Z" /><glyph glyph-name="uni4E3B" unicode="&#x4e3b;" d="M403 719 Q404 740 421.5 757.5 Q439 775 468 772 Q505 767 542.5 720.5 Q580 674 590 655.5 Q600 637 599.5 616.5 Q599 596 579 579.5 Q559 563 536 564 Q509 564 502 572 Q495 580 491 586.5 Q487 593 470 615 L440 654 Q411 685 406.5 696 Q402 707 403 719 ZM589 436 L589 278 L776 279 Q802 279 818 260.5 Q834 242 834.5 217.5 Q835 193 817.5 176 Q800 159 776 159 L589 159 L589 -6 L912 -6 Q937 -6 954.5 -23.5 Q972 -41 973 -64.5 Q974 -88 956.5 -106.5 Q939 -125 912 -125 L127 -125 Q103 -125 88.5 -107 Q74 -89 74 -63 Q74 -38 89 -22 Q104 -6 127 -6 L455 -6 L455 159 L258 159 Q233 159 218 177 Q203 195 202.5 218.5 Q202 242 216.5 260.5 Q231 279 258 279 L455 278 L455 436 L170 436 Q148 436 129.5 451 Q111 466 110.5 494.5 Q110 523 126.5 540 Q143 557 170 557 L862 557 Q890 557 907.5 540 Q925 523 925.5 497.5 Q926 472 909.5 454 Q893 436 862 436 L589 436 Z" /><glyph glyph-name="uni4E45" unicode="&#x4e45;" d="M365 509 Q318 428 267.5 363.5 Q217 299 197.5 293.5 Q178 288 166 289 Q143 290 119.5 308 Q96 326 98 361 Q98 380 107 392 Q116 404 150.5 434.5 Q185 465 218 511.5 Q251 558 277 621.5 Q303 685 311 717.5 Q319 750 333 768 Q347 786 383 787 Q403 787 431 770.5 Q459 754 458 719 Q457 702 436 659 L420 627 L618 627 Q721 627 741 600.5 Q761 574 759 540 Q757 521 745 485 Q733 449 642 292 Q650 265 659 242.5 Q668 220 697 171 Q726 122 755 92.5 Q784 63 816.5 43 Q849 23 907 -7 Q965 -37 974.5 -56.5 Q984 -76 984 -95 Q982 -118 967 -141.5 Q952 -165 909 -161 Q868 -159 751 -97.5 Q634 -36 559 171 Q487 84 424.5 28.5 Q362 -27 256.5 -86.5 Q151 -146 99 -139 Q67 -136 52 -117 Q37 -98 37 -75.5 Q37 -53 48 -37 Q57 -24 70.5 -18 Q84 -12 154 7.5 Q224 27 321.5 105.5 Q419 184 472 263 Q525 342 555.5 400 Q586 458 590.5 474 Q595 490 594 496 Q590 507 567 508 L365 509 Z" /><glyph glyph-name="uni4E48" unicode="&#x4e48;" d="M69 294 Q69 313 84 332.5 Q99 352 131.5 377.5 Q164 403 214.5 453.5 Q265 504 322.5 584.5 Q380 665 396 699 Q412 733 425 750 Q438 767 475 765 Q494 763 517 748 Q540 733 542 706 Q544 679 518 640 Q450 539 371.5 449.5 Q293 360 236 302 Q179 244 150.5 228.5 Q122 213 95 240.5 Q68 268 69 294 ZM740 61 Q730 83 723.5 95.5 Q717 108 684.5 159.5 Q652 211 650.5 221 Q649 231 652 242 Q657 265 674 277 Q691 289 707 291 Q717 291 730.5 287.5 Q744 284 761 269.5 Q778 255 831.5 170.5 Q885 86 918 16 Q951 -54 950.5 -81 Q950 -108 929.5 -126 Q909 -144 882 -142 Q862 -141 844.5 -129 Q827 -117 799 -54 Q583 -88 409.5 -97.5 Q236 -107 214 -107 Q125 -109 119 -68 Q113 -27 130 0 Q139 17 157.5 37 Q176 57 242.5 120 Q309 183 369.5 251 Q430 319 520.5 449 Q611 579 652.5 545.5 Q694 512 695 490 Q696 468 686 449 Q677 432 567 305 Q457 178 381 105.5 Q305 33 308 27 Q308 26 355 22.5 Q402 19 513.5 26.5 Q625 34 740 61 Z" /><glyph glyph-name="uni4E50" unicode="&#x4e50;" d="M318 216 Q339 221 360.5 210 Q382 199 388 183 Q394 167 394 154 Q393 138 383.5 117.5 Q374 97 333 49 L285 -6 L222 -70 Q189 -105 161.5 -124.5 Q134 -144 105 -136 Q76 -128 66 -111.5 Q56 -95 57 -73 Q58 -52 66 -43 Q74 -34 94 -19.5 Q114 -5 164 47.5 Q214 100 244 143 Q274 186 289.5 199 Q305 212 318 216 ZM459 364 L459 537 Q459 551 473.5 569 Q488 587 521 586 Q542 585 561.5 569 Q581 553 582 532 L583 364 L894 365 Q908 365 930 354 Q952 343 955.5 292.5 Q959 242 894 242 L583 242 L582 -75 Q581 -109 563 -128.5 Q545 -148 490.5 -161 Q436 -174 409 -169 Q358 -161 352.5 -122 Q347 -83 356 -65 Q367 -42 395 -41 Q450 -41 453.5 -36 Q457 -31 458 -27.5 Q459 -24 459 6 L459 242 L250 242 Q179 242 154.5 246 Q130 250 116 266.5 Q102 283 103 326 Q103 340 112 407 L124 529 Q125 545 132.5 600 Q140 655 165 677 Q190 699 268 704 L399 709 Q571 716 659 734.5 Q747 753 778 762 Q809 771 818 773 Q849 778 879.5 762.5 Q910 747 909 702 Q908 691 904 680 Q900 669 882.5 656.5 Q865 644 740.5 628.5 Q616 613 517 604 Q418 595 387.5 592.5 Q357 590 310.5 587.5 Q264 585 258.5 579 Q253 573 251 549 L238 414 Q236 403 236.5 390 Q237 377 242 371 Q247 365 272 365 L459 364 ZM660 181 Q694 225 754 193 Q780 178 836 122 Q892 66 936.5 17.5 Q981 -31 983.5 -55.5 Q986 -80 980 -95 Q964 -132 926 -136 Q896 -140 862 -102 L799 -27 Q765 11 717 54 Q669 97 659.5 110.5 Q650 124 647 136 Q644 148 650 162 Q656 176 660 181 Z" /><glyph glyph-name="uni4E5F" unicode="&#x4e5f;" d="M183 415 L183 591 Q183 617 199.5 633.5 Q216 650 241 651.5 Q266 653 288 635.5 Q310 618 310 591 L310 456 L451 499 L451 718 Q451 748 470.5 765.5 Q490 783 515 783 Q539 782 559 763.5 Q579 745 579 718 L579 540 L688 574 Q770 599 806.5 574 Q843 549 851 518.5 Q859 488 859 448 Q858 416 854.5 333 Q851 250 835.5 199 Q820 148 770.5 118 Q721 88 676 90 Q608 92 606.5 132.5 Q605 173 611 184 Q620 201 633 204.5 Q646 208 673.5 211.5 Q701 215 711 236 Q721 257 723.5 275.5 Q726 294 728.5 340.5 Q731 387 730.5 405.5 Q730 424 731 436 Q732 448 728 452.5 Q724 457 717.5 457.5 Q711 458 675 446 L579 414 L579 110 Q579 80 561.5 57.5 Q544 35 512 37 Q482 38 466.5 58.5 Q451 79 451 110 L451 374 L310 329 L310 61 Q310 23 315 8.5 Q320 -6 333 -15 Q346 -24 425 -30 Q504 -36 564 -35 Q606 -35 656 -33 Q706 -31 746.5 -24.5 Q787 -18 807.5 5 Q828 28 837 46 Q846 64 851 79 Q856 94 865 108 Q874 122 906 125 Q924 126 952 111.5 Q980 97 978 54 Q976 33 952.5 -24.5 Q929 -82 879 -119 Q829 -156 642 -157 Q408 -160 308 -139 Q208 -118 195.5 -67 Q183 -16 183 22 L183 289 L114 267 Q98 261 79 269.5 Q60 278 47.5 303 Q35 328 47.5 353 Q60 378 82 385 L183 415 Z" /><glyph glyph-name="uni4E86" unicode="&#x4e86;" d="M587 371 Q605 316 611.5 289.5 Q618 263 623.5 213 Q629 163 629.5 129.5 Q630 96 627 52 Q622 -12 608 -52 Q594 -92 555.5 -125 Q517 -158 423 -159 Q372 -160 340.5 -138.5 Q309 -117 308.5 -72 Q308 -27 369 -26 Q374 -26 424.5 -29 Q475 -32 486.5 17.5 Q498 67 498.5 107.5 Q499 148 499 154 Q498 186 492 235.5 Q486 285 464 331 Q442 377 429 393 L398 426 Q382 445 382.5 469 Q383 493 402 507.5 Q421 522 445 522 Q488 520 532 468 Q622 523 716 590 L141 589 Q112 588 99.5 609.5 Q87 631 88 652 Q89 674 103 691.5 Q117 709 141 709 L812 709 Q871 709 887.5 683.5 Q904 658 904 638 Q903 604 879 581.5 Q855 559 790 514.5 Q725 470 587 371 Z" /><glyph glyph-name="uni4E88" unicode="&#x4e88;" d="M464 425 Q389 482 376.5 496 Q364 510 362 531 Q360 552 378.5 567.5 Q397 583 418 584 Q451 585 524 528 Q567 561 591 581.5 Q615 602 612 608.5 Q609 615 592 615 L221 615 Q193 615 178 633 Q163 651 165 674 Q166 693 181 711.5 Q196 730 221 730 L646 730 Q737 730 759 700.5 Q781 671 781 647 Q780 620 766.5 600 Q753 580 732 560.5 Q711 541 607 463 Q611 458 616.5 452 Q622 446 621 441.5 Q620 437 614 426 L780 425 Q852 424 892.5 407 Q933 390 930 336 Q927 295 839 182 Q751 69 706 109 Q661 149 662 172 Q662 197 699 228.5 Q736 260 752 279 Q768 298 765.5 303 Q763 308 744 308 L572 308 L572 -26 Q572 -57 565.5 -82 Q559 -107 533.5 -130.5 Q508 -154 430 -157 Q318 -163 315.5 -120 Q313 -77 320 -63 Q334 -36 367 -35 Q372 -35 386.5 -37.5 Q401 -40 412 -39 Q428 -39 435 -32.5 Q442 -26 442 0 L442 308 L118 308 Q90 308 75.5 325.5 Q61 343 61 368 Q61 392 75.5 408.5 Q90 425 118 425 L464 425 Z" /><glyph glyph-name="uni4E92" unicode="&#x4e92;" d="M559 13 L582 126 L367 127 Q288 127 264.5 156.5 Q241 186 242 221 Q243 256 252 284 L339 574 L168 574 Q141 574 124 591.5 Q107 609 108 636 Q108 659 124.5 675.5 Q141 692 168 692 L836 692 Q864 692 881.5 675 Q899 658 900 633 Q901 608 883 591 Q865 574 836 574 L468 574 L438 474 L630 474 Q706 474 730 447.5 Q754 421 756 389 Q758 357 752 323 L696 13 L897 13 Q924 13 939.5 -2 Q955 -17 956.5 -45 Q958 -73 939 -90 Q920 -107 897 -107 L125 -107 Q93 -107 76 -88.5 Q59 -70 60 -43 Q61 -18 78 -2.5 Q95 13 125 13 L559 13 ZM599 236 L613 307 Q618 332 615 342 Q612 352 604 357 Q596 362 571 362 L403 362 L375 279 Q367 256 371.5 246 Q376 236 412 236 L599 236 Z" /><glyph glyph-name="uni4EA7" unicode="&#x4ea7;" d="M323 534 L137 534 Q118 534 102 549 Q86 564 88 591 Q89 620 106.5 633.5 Q124 647 139 647 L472 647 Q467 659 464 665 Q461 671 451.5 685 Q442 699 438 709.5 Q434 720 436.5 737 Q439 754 458.5 766.5 Q478 779 505 778 Q526 776 539.5 765.5 Q553 755 571 723 Q589 691 588 675 Q586 660 571 647 L882 647 Q899 647 917.5 630 Q936 613 934 585 Q931 553 913.5 543.5 Q896 534 883 534 L740 534 Q747 527 751.5 520.5 Q756 514 756.5 503 Q757 492 744 457 Q731 422 730 419 L720 398 L898 398 Q923 398 941.5 382.5 Q960 367 960.5 336 Q961 305 935.5 294.5 Q910 284 895 284 L301 284 Q280 284 272.5 277 Q265 270 265 245 L265 196 Q265 132 259.5 85.5 Q254 39 237.5 -24 Q221 -87 165.5 -131 Q110 -175 65 -152 Q30 -135 28.5 -112 Q27 -89 33 -75 Q38 -63 53 -49 L75 -29 Q108 2 122.5 48.5 Q137 95 137 167 L137 277 Q137 294 143.5 322.5 Q150 351 178 374 Q206 397 296 397 L353 397 Q332 426 323 442 L308 466 Q298 480 295 496.5 Q292 513 323 534 ZM424 397 L623 397 Q615 403 611 409 Q607 415 607.5 426 Q608 437 613.5 452.5 Q619 468 638 534 L393 534 Q412 512 430.5 482 Q449 452 445 430.5 Q441 409 424 397 Z" /><glyph glyph-name="uni4EBA" unicode="&#x4eba;" d="M529 256 Q511 189 480 125 Q449 61 372 -5.5 Q295 -72 229.5 -111 Q164 -150 130 -151 Q109 -153 90 -142.5 Q71 -132 64.5 -116.5 Q58 -101 58 -88 Q58 -75 63 -63 Q68 -51 79 -42 Q90 -33 128 -17.5 Q166 -2 222 33.5 Q278 69 317.5 115.5 Q357 162 383 219.5 Q409 277 419 341 Q429 405 430.5 436.5 Q432 468 434 540 Q436 612 437 629 L437 697 Q439 781 505 778 Q557 774 563.5 733 Q570 692 569.5 653 Q569 614 570 603 Q570 580 576 530.5 Q582 481 592.5 420 Q603 359 653 251.5 Q703 144 768 87 Q833 30 882.5 0.5 Q932 -29 958 -48 Q984 -67 984 -108 Q983 -165 918 -164 Q862 -164 766 -86.5 Q670 -9 621 64 Q572 137 550.5 197.5 Q529 258 529 256 Z" /><glyph glyph-name="uni4EC0" unicode="&#x4ec0;" d="M286 478 Q296 469 297 462.5 Q298 456 298 431 L298 -90 Q298 -112 282 -131 Q266 -150 236 -149 Q207 -149 193.5 -131.5 Q180 -114 180 -90 L180 327 Q142 284 124 275.5 Q106 267 83 269 Q60 271 47.5 291.5 Q35 312 37 334 Q39 355 49.5 370.5 Q60 386 93.5 420.5 Q127 455 148.5 488.5 Q170 522 194 573 Q218 624 232 673.5 Q246 723 260 746.5 Q274 770 312 770 Q338 769 358.5 752.5 Q379 736 379 706 Q378 687 370 663 Q362 639 339.5 587 Q317 535 286 478 ZM570 463 L570 696 Q570 721 585.5 739.5 Q601 758 632 758 Q659 757 676 739.5 Q693 722 693 696 L693 463 L889 463 Q918 463 935.5 443 Q953 423 953 402 Q952 378 933.5 361 Q915 344 889 344 L693 344 L693 -81 Q693 -115 677 -133.5 Q661 -152 631 -151 Q601 -151 585.5 -131.5 Q570 -112 570 -81 L570 344 L399 344 Q369 344 353 360.5 Q337 377 336 403 Q335 429 354.5 446 Q374 463 399 463 L570 463 Z" /><glyph glyph-name="uni4ED8" unicode="&#x4ed8;" d="M283 501 Q308 494 311 481 Q314 468 314 451 L314 -117 Q314 -142 294 -158.5 Q274 -175 250 -173 Q223 -172 208 -155.5 Q193 -139 193 -117 L193 356 Q163 316 146.5 307.5 Q130 299 113 301 Q89 302 72.5 318 Q56 334 55 354 Q54 374 65 397 Q72 410 101.5 445.5 Q131 481 161.5 533 Q192 585 216.5 657.5 Q241 730 256 752.5 Q271 775 303 775 Q327 774 344.5 760.5 Q362 747 366 731.5 Q370 716 365 691 Q357 656 342.5 622 Q328 588 283 501 ZM695 522 L694 706 Q693 728 711.5 744 Q730 760 755 760 Q781 759 798 742.5 Q815 726 816 706 L817 522 L914 522 Q934 522 951.5 504 Q969 486 969 461 Q968 436 951.5 419 Q935 402 914 402 L817 402 L816 -6 Q815 -38 812.5 -63 Q810 -88 788.5 -129 Q767 -170 655 -166 Q631 -166 612 -158.5 Q593 -151 581 -138 Q569 -125 567.5 -101.5 Q566 -78 579 -59.5 Q592 -41 615 -39 Q620 -39 634 -41.5 Q648 -44 659 -43 Q682 -43 687.5 -32.5 Q693 -22 694 14 L695 402 L402 402 Q382 402 366 419 Q350 436 349.5 459.5 Q349 483 362.5 502.5 Q376 522 402 522 L695 522 ZM426 291 Q427 309 445.5 327 Q464 345 495 338 Q512 333 534 311.5 Q556 290 584 239.5 Q612 189 612.5 167.5 Q613 146 596 129 Q579 112 556 112 Q522 111 497 149 L466 202 Q438 246 431.5 262.5 Q425 279 426 291 Z" /><glyph glyph-name="uni4EE5" unicode="&#x4ee5;" d="M253 107 Q359 170 438.5 243.5 Q518 317 545.5 282 Q573 247 573 228 Q572 212 561 194.5 Q550 177 480.5 116.5 Q411 56 324.5 -1.5 Q238 -59 193 -78.5 Q148 -98 128.5 -71.5 Q109 -45 113 -9 L121 36 Q122 45 124.5 70.5 Q127 96 127 115 L127 637 Q127 662 143.5 678.5 Q160 695 186 695.5 Q212 696 232.5 679.5 Q253 663 253 637 L253 107 ZM360 702 Q356 727 374.5 746 Q393 765 422 763 Q435 762 453.5 752 Q472 742 514 695.5 Q556 649 567 629.5 Q578 610 578.5 586.5 Q579 563 560.5 543.5 Q542 524 515 527 Q491 528 468 552 L427 606 L383 659 Q361 690 360 702 ZM787 117 Q812 120 837 101 Q862 82 904.5 30 Q947 -22 959 -42.5 Q971 -63 971 -83 Q969 -112 950 -127 Q931 -142 915 -142 Q888 -144 863 -117 L797 -34 L758 12 L739 37 Q681 -33 633.5 -67.5 Q586 -102 516 -132 Q446 -162 417.5 -136.5 Q389 -111 391 -81 Q392 -49 407.5 -38.5 Q423 -28 528.5 12 Q634 52 663.5 142 Q693 232 700.5 276.5 Q708 321 711.5 360.5 Q715 400 717.5 475 Q720 550 720 566 L719 612 Q718 640 721 662 Q728 731 788 724 Q825 719 836.5 695 Q848 671 848.5 633.5 Q849 596 849 574 Q848 535 843 438 Q838 341 828.5 264 Q819 187 787 117 Z" /><glyph glyph-name="uni4EEC" unicode="&#x4eec;" d="M270 501 Q281 495 286.5 489.5 Q292 484 292 461 L292 -108 Q292 -129 275 -143.5 Q258 -158 234 -157 Q218 -157 196 -145 Q174 -133 174 -108 L173 353 Q141 306 113 302 Q79 297 57.5 323 Q36 349 39 377 Q41 395 58 417 L98 460 Q120 485 147.5 532 Q175 579 190 612 Q205 645 214.5 677.5 Q224 710 234.5 729 Q245 748 281 748 Q297 747 322.5 736 Q348 725 348.5 695 Q349 665 341 643 Q337 632 315 590 L289 537 L270 501 ZM344 532 Q354 560 366 570.5 Q378 581 398.5 582.5 Q419 584 440 569 Q461 554 461 534 L461 -110 Q461 -126 443.5 -141.5 Q426 -157 400 -156 Q383 -156 363.5 -144 Q344 -132 344 -110 L344 532 ZM442 733 Q464 748 487.5 744 Q511 740 541 698 Q571 656 580 638.5 Q589 621 589.5 606 Q590 591 582 577 Q566 550 541.5 545.5 Q517 541 503 549 Q492 554 482 569 L455 615 Q448 625 433 646 Q418 667 416 681.5 Q414 696 422.5 710.5 Q431 725 442 733 ZM665 672 L801 672 Q872 672 900 634 Q928 596 930.5 573 Q933 550 933 532 L933 -53 Q933 -98 916 -118 Q899 -138 857 -150.5 Q815 -163 765 -165 Q680 -169 690 -85 Q695 -36 734 -32 L767 -33 Q792 -34 801 -23.5 Q810 -13 810 7 L810 527 Q810 535 807 545.5 Q804 556 780 556 L665 556 Q649 556 632 570.5 Q615 585 617 616 Q617 633 631 652.5 Q645 672 665 672 Z" /><glyph glyph-name="uni4EF6" unicode="&#x4ef6;" d="M262 497 Q293 495 293 451 L293 -110 Q293 -126 277 -144.5 Q261 -163 230 -161 Q204 -160 191.5 -144.5 Q179 -129 179 -110 L179 358 Q151 323 134 312.5 Q117 302 81.5 304.5 Q46 307 42 344.5 Q38 382 55 408 Q56 410 92.5 450 Q129 490 163 561 Q197 632 206 657 L227 727 Q244 775 282.5 774.5 Q321 774 333 752.5 Q345 731 345 711 Q344 693 333 657.5 Q322 622 262 497 ZM532 574 L608 574 L608 715 Q608 739 624.5 752.5 Q641 766 664 767 Q685 767 706 753.5 Q727 740 727 715 L727 574 L891 574 Q907 574 923 559 Q939 544 940.5 519.5 Q942 495 926 478.5 Q910 462 891 462 L727 462 L727 296 L915 296 Q938 296 952.5 279.5 Q967 263 967.5 236.5 Q968 210 953 196 Q938 182 915 182 L727 182 L727 -115 Q727 -132 709.5 -148.5 Q692 -165 663.5 -166.5 Q635 -168 621.5 -152 Q608 -136 608 -115 L608 182 L381 182 Q362 182 347 197.5 Q332 213 330.5 235.5 Q329 258 342 277 Q355 296 381 296 L608 296 L608 462 L494 462 Q488 447 484.5 438 Q481 429 464 394.5 Q447 360 432.5 346.5 Q418 333 380.5 337 Q343 341 339 373 Q335 405 345 429 L383 503 Q391 521 402 556.5 Q413 592 422 629.5 Q431 667 439.5 694.5 Q448 722 492 719 Q518 717 534.5 698 Q551 679 553 660 Q554 645 548 626 L532 574 Z" /><glyph glyph-name="uni4EF7" unicode="&#x4ef7;" d="M676 721 Q740 611 806.5 558 Q873 505 921 483.5 Q969 462 990 446 Q1011 430 1005 393 Q1001 376 988 360 Q975 344 951 340 Q915 333 835 377.5 Q755 422 704.5 485 Q654 548 619 611 Q527 450 447 386 Q367 322 339.5 332 Q312 342 301 363 Q290 384 301 410 Q306 423 313.5 430.5 Q321 438 350.5 460 Q380 482 424 533.5 Q468 585 494 631.5 Q520 678 532.5 712.5 Q545 747 557 762 Q569 777 591 782 Q604 784 626.5 779.5 Q649 775 663.5 764 Q678 753 677 741 L676 721 ZM309 -86 Q312 -78 324 -67.5 Q336 -57 366.5 -36 Q397 -15 412 9 Q427 33 434 68 Q441 103 444 132 L449 229 Q452 298 450 318.5 Q448 339 449 346 Q454 383 501.5 387 Q549 391 560 353.5 Q571 316 563 229 Q562 222 558.5 137.5 Q555 53 545 15.5 Q535 -22 512.5 -65.5 Q490 -109 414 -149 Q338 -189 319 -148.5 Q300 -108 309 -86 ZM698 -126 L698 349 Q698 366 718.5 375.5 Q739 385 758 385 Q778 384 796.5 374.5 Q815 365 815 349 L815 -126 Q815 -140 800.5 -155 Q786 -170 758 -169 Q737 -169 717.5 -156 Q698 -143 698 -126 ZM260 480 Q290 465 290 442 L289 -124 Q288 -136 277 -148.5 Q266 -161 236.5 -162.5 Q207 -164 192.5 -152 Q178 -140 178 -122 L178 349 Q164 345 143.5 321 Q123 297 97.5 295 Q72 293 54 307 Q36 321 32.5 340.5 Q29 360 33 374 Q36 387 50 404 L88 446 Q112 473 134.5 509 Q157 545 179.5 594.5 Q202 644 214.5 686.5 Q227 729 242 754 Q257 779 301 772 Q324 767 336.5 753.5 Q349 740 352 720.5 Q355 701 339 658 Q319 605 311 587 L282 526 L260 480 Z" /><glyph glyph-name="uni4EFB" unicode="&#x4efb;" d="M256 475 Q277 470 280 456.5 Q283 443 283 419 L283 -125 Q283 -143 265.5 -158 Q248 -173 222 -171 Q198 -171 184.5 -157.5 Q171 -144 171 -125 L171 340 Q139 298 115 280 Q91 262 61.5 288 Q32 314 32 345 Q32 366 52 395 L99 454 Q123 485 148.5 530 Q174 575 192 614.5 Q210 654 221.5 688 Q233 722 245.5 745 Q258 768 291 769.5 Q324 771 339.5 750.5 Q355 730 357 702.5 Q359 675 330 616 Q293 542 256 475 ZM571 369 L571 560 Q482 545 447 544 Q378 541 374.5 583 Q371 625 389 642 Q400 653 417.5 657 Q435 661 495.5 664.5 Q556 668 637.5 686.5 Q719 705 761 718.5 Q803 732 822 733 Q850 733 873 715 Q896 697 896 669 Q895 644 870.5 623.5 Q846 603 696 579 L696 369 L926 369 Q946 369 965 353.5 Q984 338 984.5 310.5 Q985 283 966.5 266.5 Q948 250 926 250 L696 250 L696 -11 L887 -12 Q908 -13 925.5 -31.5 Q943 -50 943 -73 Q942 -98 924.5 -114 Q907 -130 887 -130 L396 -130 Q372 -130 356 -113 Q340 -96 339.5 -73 Q339 -50 355 -30.5 Q371 -11 396 -11 L571 -11 L571 250 L356 250 Q329 250 315 270.5 Q301 291 303 313 Q304 335 319 352 Q334 369 356 369 L571 369 Z" /><glyph glyph-name="uni4F17" unicode="&#x4f17;" d="M325 137 Q354 172 373 173.5 Q392 175 413 159 Q426 148 444.5 125.5 Q463 103 475 84 Q487 65 485.5 47 Q484 29 461 8 Q438 -13 416 -9 Q400 -7 385 9 L344 63 Q322 83 322 85 L317 96 Q305 55 288 12 Q271 -31 213 -87 Q155 -143 136.5 -149.5 Q118 -156 93.5 -154 Q69 -152 53 -130 Q37 -108 37 -83 Q37 -61 44.5 -52 Q52 -43 74.5 -32 Q97 -21 128.5 8 Q160 37 180.5 80.5 Q201 124 206.5 165 Q212 206 212.5 232.5 Q213 259 216 276 Q219 293 237 310 Q255 327 291 321 Q314 316 326.5 301 Q339 286 339.5 264 Q340 242 336 213 L331 175 L325 137 ZM484 565 Q431 460 368.5 406 Q306 352 225 308.5 Q144 265 109 267 Q67 268 56 300 Q45 332 49 350 Q52 367 62.5 376.5 Q73 386 109.5 396.5 Q146 407 189 430.5 Q232 454 265 481 Q298 508 336 565 Q374 622 380.5 673 Q387 724 396 745.5 Q405 767 453 770 Q478 771 496 762 Q514 753 522 743 Q530 733 532.5 725 Q535 717 547 663.5 Q559 610 625.5 542.5 Q692 475 749.5 448.5 Q807 422 842.5 412 Q878 402 902.5 391 Q927 380 927 338 Q926 314 907 290 Q888 266 848 270 Q830 271 781.5 290.5 Q733 310 680.5 337 Q628 364 571 430.5 Q514 497 499 531.5 Q484 566 484 565 ZM650 70 Q640 34 623 -11.5 Q606 -57 511 -131.5 Q416 -206 384 -161.5 Q352 -117 355 -93 Q356 -77 365.5 -66.5 Q375 -56 404.5 -44 Q434 -32 482.5 -4 Q531 24 539.5 113 Q548 202 547.5 244.5 Q547 287 548 292 Q548 309 557 328.5 Q566 348 609 348 Q633 347 647.5 338 Q662 329 667 317 Q672 305 679 245 Q686 185 732.5 124.5 Q779 64 808.5 37.5 Q838 11 866 -2 L904 -21 Q946 -46 945 -83 Q944 -111 927.5 -130 Q911 -149 894 -154 Q842 -169 765.5 -96.5 Q689 -24 650 70 Z" /><glyph glyph-name="uni4F1A" unicode="&#x4f1a;" d="M575 733 Q618 663 668 609.5 Q718 556 766.5 528 Q815 500 886.5 471 Q958 442 963 412 Q968 382 949 349 Q930 316 876 329 Q857 333 804 362.5 Q751 392 716.5 416.5 Q682 441 646 475 Q610 509 580.5 544 Q551 579 514 642 Q462 573 409 516.5 Q356 460 257.5 391.5 Q159 323 130 319 Q85 312 69 341.5 Q53 371 56 392 Q59 409 70 419.5 Q81 430 132.5 452.5 Q184 475 254.5 537.5 Q325 600 360.5 648.5 Q396 697 409 721 L427 757 Q446 793 468.5 801.5 Q491 810 527 799 Q557 789 569 771.5 Q581 754 577 740 L575 733 ZM672 314 L337 314 Q320 314 305 328.5 Q290 343 289.5 366.5 Q289 390 306 407 Q323 424 342 424 L672 424 Q695 424 713.5 405 Q732 386 727 358 Q723 340 708.5 327 Q694 314 672 314 ZM517 133 Q529 120 528 108 Q526 93 500 70.5 Q474 48 383 -41 Q514 -36 681 -15 Q651 16 633 30 Q615 44 609 54 Q603 64 607 81 Q609 93 625 109 Q641 125 665 127 Q710 128 782 53 Q854 -22 871 -48 Q888 -74 888.5 -96.5 Q889 -119 870 -136 Q851 -153 832 -156 Q815 -160 802 -154.5 Q789 -149 759 -109 Q576 -136 424 -146.5 Q272 -157 250 -156 Q219 -156 203 -146 Q187 -136 181.5 -108.5 Q176 -81 189 -56 Q196 -43 204.5 -35.5 Q213 -28 256 0.5 Q299 29 384 133 L157 133 Q129 133 113.5 152.5 Q98 172 99 191 Q99 211 116.5 228 Q134 245 158 245 L856 245 Q879 245 897 229 Q915 213 915 189 Q914 158 894.5 145.5 Q875 133 857 133 L517 133 Z" /><glyph glyph-name="uni4F34" unicode="&#x4f34;" d="M582 222 L582 345 L386 345 Q366 345 351 357 Q336 369 335.5 397.5 Q335 426 350.5 439 Q366 452 386 452 L582 452 L582 728 Q582 744 598.5 758.5 Q615 773 642 773 Q666 772 683.5 757.5 Q701 743 701 728 L701 452 L891 452 Q910 452 924.5 438 Q939 424 939 397 Q938 369 923.5 357 Q909 345 891 345 L701 345 L701 222 L921 222 Q941 222 956.5 207 Q972 192 971 164 Q969 137 954.5 124.5 Q940 112 921 112 L701 112 L701 -109 Q701 -131 683 -145.5 Q665 -160 640 -159 Q608 -159 595 -143 Q582 -127 582 -109 L582 112 L357 112 Q339 112 323 125 Q307 138 305.5 162 Q304 186 318.5 204 Q333 222 357 222 L582 222 ZM855 697 Q867 699 886 691 Q905 683 913 667 Q921 651 921.5 634.5 Q922 618 907 588 Q866 505 841.5 485 Q817 465 788 465.5 Q759 466 747.5 486.5 Q736 507 737 520 Q737 533 748 554 L778 608 Q804 660 820.5 676.5 Q837 693 855 697 ZM547 551 Q547 530 529.5 511 Q512 492 487 493 Q467 493 453.5 503.5 Q440 514 403 567 L374 605 Q361 622 359 640 Q357 658 379 677.5 Q401 697 426 694 Q451 690 498 635.5 Q545 581 547 551 ZM254 495 Q270 491 272 483 Q274 475 274 452 L274 -112 Q274 -172 211 -169 Q181 -168 170 -154 Q159 -140 159 -112 L159 348 Q134 306 120 297.5 Q106 289 87.5 288.5 Q69 288 50 303.5 Q31 319 31 353 Q31 371 38.5 384.5 Q46 398 66.5 422.5 Q87 447 117.5 493 Q148 539 177 613.5 Q206 688 216.5 724.5 Q227 761 239 776 Q251 791 282.5 792 Q314 793 329 772 Q344 751 344 724 Q343 701 320.5 642.5 Q298 584 254 495 Z" /><glyph glyph-name="uni4F53" unicode="&#x4f53;" d="M261 519 Q271 512 276.5 505 Q282 498 282 478 L282 167 Q351 216 414 302 Q477 388 514 484 L364 484 Q351 484 334 497 Q317 510 319 544 Q319 563 332 579 Q345 595 364 595 L561 595 L561 724 Q561 736 576 748.5 Q591 761 621 762.5 Q651 764 665 750 Q679 736 679 724 L679 595 L882 595 Q892 595 907.5 583.5 Q923 572 923.5 550 Q924 528 912.5 506 Q901 484 882 484 L711 484 Q738 415 776.5 345 Q815 275 892 222 L946 186 Q964 172 972 159 Q980 146 978 119 Q976 92 951 74 Q926 56 877.5 78.5 Q829 101 775 158 Q721 215 679 314 L679 122 L782 122 Q797 122 810.5 108 Q824 94 824 69 Q823 46 810 30.5 Q797 15 782 15 L679 15 L679 -127 Q679 -140 665.5 -154.5 Q652 -169 620 -168 Q591 -168 576 -154 Q561 -140 561 -127 L561 15 L452 15 Q441 15 428 27 Q415 39 417 69 Q417 88 428 105 Q439 122 452 122 L561 122 L561 318 Q513 235 448.5 156.5 Q384 78 349 73 Q314 68 282 98 L282 -114 Q282 -131 264.5 -143 Q247 -155 225 -154 Q200 -154 185 -140.5 Q170 -127 170 -114 L170 369 Q151 343 132 327 Q113 311 83 320 Q63 325 48.5 343.5 Q34 362 38 392 Q41 414 60 438 L94 474 Q111 493 146 551.5 Q181 610 199.5 671 Q218 732 232 752.5 Q246 773 286 767 Q339 758 340 723 Q341 688 330 657 Q311 607 261 519 Z" /><glyph glyph-name="uni4F60" unicode="&#x4f60;" d="M744 231 Q738 243 737.5 260.5 Q737 278 753 295.5 Q769 313 797 311 Q830 308 856 270.5 Q882 233 921.5 151 Q961 69 970.5 41.5 Q980 14 979.5 -3 Q979 -20 961.5 -37.5 Q944 -55 917 -53 Q893 -52 881.5 -40 Q870 -28 861 -7 L831 61 Q807 114 788 152 L744 231 ZM492 323 Q520 320 534 303 Q548 286 548.5 265 Q549 244 530 201 L502 135 Q488 105 462 57 Q436 9 412 -12.5 Q388 -34 349 -34.5 Q310 -35 308.5 0.5 Q307 36 320 58 Q325 67 351.5 106 Q378 145 388.5 165.5 Q399 186 417 233.5 Q435 281 446 303.5 Q457 326 492 323 ZM560 605 L809 605 Q884 605 916.5 571 Q949 537 946 493 Q944 474 929 427.5 Q914 381 899 359.5 Q884 338 874.5 334.5 Q865 331 850 333 Q815 337 802 351.5 Q789 366 788.5 379.5 Q788 393 806 433 Q809 439 814.5 456 Q820 473 818 478 Q813 489 789 489 L706 489 L706 -78 Q706 -93 691.5 -128.5 Q677 -164 585 -166 Q518 -168 497 -142 Q476 -116 478 -92 Q479 -75 490.5 -60.5 Q502 -46 517 -44 L546 -48 Q590 -54 590 -7 L590 489 L507 489 Q493 464 481.5 443.5 Q470 423 440 378 Q410 333 363.5 334 Q317 335 314 370.5 Q311 406 323 426 Q328 434 348 459.5 Q368 485 387 518 Q406 551 426 602 Q446 653 454.5 689.5 Q463 726 475.5 748 Q488 770 526 768 Q561 765 574 746 Q587 727 588 709 Q588 688 583 673 L560 605 ZM255 493 Q275 490 279 477.5 Q283 465 283 448 L283 -109 Q283 -130 268 -145.5 Q253 -161 226.5 -161.5 Q200 -162 185.5 -147 Q171 -132 171 -109 L171 353 Q135 303 108.5 284 Q82 265 56 288.5 Q30 312 30 338 Q30 355 46 380 L92 441 Q128 490 156 555.5 Q184 621 198.5 664.5 Q213 708 226.5 737.5 Q240 767 273.5 767.5 Q307 768 322.5 749 Q338 730 338 708 Q337 692 318.5 637.5 Q300 583 255 493 Z" /><glyph glyph-name="uni4F73" unicode="&#x4f73;" d="M574 430 L574 528 L432 528 Q409 528 392.5 543 Q376 558 377 586 Q378 638 432 638 L574 638 L574 717 Q574 737 586.5 754.5 Q599 772 633 772.5 Q667 773 680.5 754.5 Q694 736 694 717 L694 638 L823 638 Q844 638 859 624.5 Q874 611 876 583.5 Q878 556 860 542 Q842 528 823 528 L694 528 L694 430 L911 430 Q935 430 949.5 414 Q964 398 965.5 373.5 Q967 349 951 333 Q935 317 911 317 L372 317 Q349 317 333 334 Q317 351 319 378 Q320 402 335 416 Q350 430 372 430 L574 430 ZM274 500 Q293 497 297 484.5 Q301 472 301 455 L301 -121 Q301 -139 285 -154.5 Q269 -170 240 -169 Q187 -169 187 -121 L187 360 Q148 309 133 298.5 Q118 288 91.5 287 Q65 286 52.5 310.5 Q40 335 42 352 Q44 370 66 399 L106 452 Q150 514 175.5 571.5 Q201 629 215 672 Q229 715 244 744.5 Q259 774 293.5 773.5 Q328 773 343 755 Q358 737 357 710 Q355 687 336 641 Q317 595 274 500 ZM578 -6 L578 101 L436 101 Q412 101 395 116 Q378 131 380 159 Q381 184 397 197.5 Q413 211 436 211 L578 211 L578 251 Q578 272 590 289 Q602 306 636 306.5 Q670 307 683.5 288.5 Q697 270 697 251 L697 211 L826 211 Q848 211 863 197.5 Q878 184 879.5 156.5 Q881 129 862.5 115 Q844 101 826 101 L697 101 L697 -6 L915 -6 Q940 -6 954 -22 Q968 -38 969 -62.5 Q970 -87 954 -103 Q938 -119 915 -119 L384 -119 Q361 -119 345 -102 Q329 -85 331 -58 Q332 -34 347 -20 Q362 -6 384 -6 L578 -6 Z" /><glyph glyph-name="uni4F7F" unicode="&#x4f7f;" d="M507 28 Q487 46 443.5 94.5 Q400 143 391.5 157 Q383 171 381.5 181.5 Q380 192 387 203 Q393 212 408 213 Q396 220 385.5 230 Q375 240 371 265.5 Q367 291 367 326 L367 389 Q367 505 497 505 L590 505 L590 564 L401 564 Q379 564 364 578.5 Q349 593 348.5 631.5 Q348 670 401 670 L590 670 Q589 679 588.5 689.5 Q588 700 590 729 Q591 752 601 770.5 Q611 789 648 789.5 Q685 790 700 761 Q705 750 706 731 L706 670 L902 670 Q924 670 938.5 656.5 Q953 643 954.5 618.5 Q956 594 941 579 Q926 564 902 564 L703 564 L702 505 L782 505 Q853 505 885 478 Q917 451 917 389 L917 328 Q917 266 886.5 238 Q856 210 782 210 L700 210 Q693 152 688.5 125 Q684 98 670 51 Q717 19 764 6 Q811 -7 846 -13.5 Q881 -20 906.5 -22 Q932 -24 958.5 -31.5 Q985 -39 985 -83 Q984 -104 968.5 -126 Q953 -148 906 -146 Q780 -142 603 -42 Q589 -54 575 -65 Q561 -76 527.5 -95 Q494 -114 464.5 -128 Q435 -142 407 -151.5 Q379 -161 363 -159.5 Q347 -158 329 -140 Q311 -122 312.5 -96 Q314 -70 328 -58 Q342 -46 390.5 -34.5 Q439 -23 507 28 ZM587 315 L590 404 L516 404 Q482 404 482 368 L482 346 Q482 335 489 324 Q496 313 516 314 L587 315 ZM588 210 L494 210 Q522 166 573 122 Q577 136 580 149 Q583 162 588 210 ZM700 315 L769 314 Q780 313 790.5 321.5 Q801 330 801 346 L801 368 Q801 404 767 404 L702 404 L700 315 ZM259 495 Q278 492 282 478.5 Q286 465 286 450 L286 -108 Q286 -127 270 -141 Q254 -155 213 -155.5 Q172 -156 172 -108 L172 355 Q130 301 117 292 Q104 283 77 282.5 Q50 282 37.5 306 Q25 330 27 347 Q29 365 51 394 L91 447 Q135 509 160.5 566.5 Q186 624 200 667 Q214 710 229 739.5 Q244 769 278.5 768.5 Q313 768 328 749.5 Q343 731 342 705 Q340 683 321.5 636.5 Q303 590 259 495 Z" /><glyph glyph-name="uni4FA3" unicode="&#x4fa3;" d="M270 497 Q280 486 285.5 477.5 Q291 469 291 436 L291 -103 Q291 -121 275 -137.5 Q259 -154 233.5 -154.5 Q208 -155 193 -138 Q178 -121 178 -103 L177 340 Q146 297 121 274.5 Q96 252 66 284 Q36 316 40 350 Q42 370 60 393 L99 439 Q101 443 115 466 L146 517 Q156 536 179.5 589.5 Q203 643 213 685 Q223 727 234.5 752 Q246 777 289 775 Q303 774 324.5 763.5 Q346 753 350 731.5 Q354 710 345 684 L331 648 L312 594 Q297 554 270 497 ZM792 264 Q874 261 907 229.5 Q940 198 940 110 L940 18 Q940 -16 918.5 -74 Q897 -132 792 -132 L487 -132 Q373 -132 360.5 -76.5 Q348 -21 348 17 L348 112 Q348 134 354.5 167.5 Q361 201 388 232.5 Q415 264 486 264 L792 264 ZM516 -26 L762 -26 Q800 -26 810.5 -10 Q821 6 821 29 L821 103 Q821 131 811 143.5 Q801 156 762 156 L516 156 Q496 156 480.5 143.5 Q465 131 465 103 L465 29 Q465 3 473.5 -11.5 Q482 -26 516 -26 ZM742 718 Q823 714 848 693 Q873 672 881 639.5 Q889 607 889 564 L889 494 Q889 455 878.5 423.5 Q868 392 844.5 367.5 Q821 343 742 343 L535 343 Q421 343 408.5 396.5 Q396 450 396 493 L396 566 Q396 718 533 718 L742 718 ZM561 451 L712 451 Q771 451 771 507 L771 554 Q771 579 761 592.5 Q751 606 712 606 L561 606 Q530 606 520.5 588.5 Q511 571 511 554 L511 507 Q511 482 519 466.5 Q527 451 561 451 Z" /><glyph glyph-name="uni4FDD" unicode="&#x4fdd;" d="M510 217 L352 217 Q331 217 313.5 232 Q296 247 295.5 272 Q295 297 313.5 311.5 Q332 326 352 326 L567 326 L567 393 L526 393 Q432 393 411 412.5 Q390 432 387 461 Q384 490 384 517 L384 608 Q384 653 389.5 678 Q395 703 420.5 720.5 Q446 738 526 738 L745 738 Q822 738 845.5 718 Q869 698 873 672.5 Q877 647 877 608 L877 517 Q877 487 873.5 462 Q870 437 847.5 415 Q825 393 745 393 L685 393 L685 326 L924 326 Q946 326 962 310 Q978 294 979.5 273 Q981 252 964.5 234.5 Q948 217 923 217 L755 217 Q794 143 813.5 118 Q833 93 863.5 66 Q894 39 930.5 17.5 Q967 -4 981 -17.5 Q995 -31 996.5 -56.5 Q998 -82 970.5 -116.5 Q943 -151 880 -103.5 Q817 -56 771.5 -14 Q726 28 685 121 L685 -113 Q685 -125 672 -148 Q659 -171 620 -168 Q594 -167 580.5 -149.5 Q567 -132 567 -113 L567 82 Q510 6 477 -25 Q444 -56 419 -75 Q394 -94 372.5 -103 Q351 -112 331 -110.5 Q311 -109 294 -91.5 Q277 -74 278 -49 Q279 -24 296 -12.5 Q313 -1 355.5 25.5 Q398 52 437.5 100 Q477 148 510 217 ZM543 502 L721 502 Q747 502 753.5 510 Q760 518 760 539 L760 586 Q760 607 755 618.5 Q750 630 721 630 L543 630 Q512 630 506 621 Q500 612 500 588 L500 539 Q500 524 505.5 513 Q511 502 543 502 ZM245 496 Q265 495 269 481 Q273 467 273 451 L273 -106 Q273 -127 258 -142 Q243 -157 216 -157.5 Q189 -158 175 -143 Q161 -128 161 -106 L161 357 Q126 306 99 287.5 Q72 269 46 291.5 Q20 314 20 341 Q20 358 36 383 L82 444 Q117 493 145.5 558.5 Q174 624 188.5 667.5 Q203 711 217 741 Q231 771 263.5 771.5 Q296 772 312 752 Q328 732 328 711 Q327 702 314.5 658.5 Q302 615 245 496 Z" /><glyph glyph-name="uni500D" unicode="&#x500d;" d="M744 499 L397 499 Q379 499 358 514 Q337 529 339 559 Q340 585 359 598.5 Q378 612 397 612 L591 612 Q586 622 581.5 633 Q577 644 574 650 Q571 656 557 674 Q543 692 540 701.5 Q537 711 538 725 Q539 739 558 756 Q577 773 601 769 Q625 765 638 754 Q651 743 677.5 704.5 Q704 666 710.5 647.5 Q717 629 714 623 L709 611 L879 612 Q899 612 919 599 Q939 586 941.5 560 Q944 534 924.5 516.5 Q905 499 879 499 L823 499 Q827 496 829.5 493.5 Q832 491 836.5 483 Q841 475 840.5 465 Q840 455 828.5 429 Q817 403 810.5 389 Q804 375 784 351 L919 351 Q937 351 957 338 Q977 325 978.5 297 Q980 269 959.5 254.5 Q939 240 919 240 L362 240 Q344 240 324 254.5 Q304 269 307 302 Q308 322 324 336.5 Q340 351 362 351 L495 351 Q490 362 484.5 374.5 Q479 387 466 405.5 Q453 424 448.5 432.5 Q444 441 447 469 Q450 497 508 495 Q525 494 539.5 482.5 Q554 471 576 434.5 Q598 398 601 377 Q602 367 601 365 L596 351 L671 351 Q669 359 669.5 367 Q670 375 692 407 Q714 439 726 465.5 Q738 492 744 499 ZM893 69 L893 -14 Q893 -37 886 -63.5 Q879 -90 854.5 -111 Q830 -132 756 -132 L515 -132 Q443 -132 420 -111.5 Q397 -91 391.5 -63.5 Q386 -36 386 -14 L386 69 Q386 105 390 131.5 Q394 158 422 180.5 Q450 203 515 203 L766 203 Q828 203 856 180.5 Q884 158 888.5 131.5 Q893 105 893 69 ZM532 -24 L748 -24 Q776 -24 776 16 L776 63 Q776 80 766.5 89 Q757 98 748 98 L532 98 Q505 98 505 63 L505 16 Q505 -5 510 -14.5 Q515 -24 532 -24 ZM260 488 Q280 485 284 472.5 Q288 460 288 443 L288 -115 Q288 -135 273 -150.5 Q258 -166 231.5 -166.5 Q205 -167 190.5 -152 Q176 -137 176 -115 L176 348 Q140 298 113.5 279 Q87 260 61 283.5 Q35 307 35 333 Q35 350 51 375 L97 436 Q132 485 161 551 Q190 617 204 660 Q218 703 232 732.5 Q246 762 279 762.5 Q312 763 328 744 Q344 725 343 702 Q342 692 329 646 Q316 600 260 488 Z" /><glyph glyph-name="uni501F" unicode="&#x501f;" d="M459 415 L459 531 L410 531 Q393 531 371 542.5 Q349 554 348.5 580 Q348 606 364.5 623 Q381 640 410 640 L459 640 L459 712 Q459 733 475.5 749.5 Q492 766 515 766.5 Q538 767 557 750.5 Q576 734 576 712 L576 640 L698 640 L698 717 Q698 733 711.5 749.5 Q725 766 753.5 767.5 Q782 769 798 751.5 Q814 734 814 717 L814 640 L887 640 Q903 640 921 627.5 Q939 615 940.5 587.5 Q942 560 924 545.5 Q906 531 887 531 L814 531 L814 415 L920 415 Q938 415 955 400.5 Q972 386 972 361 Q971 330 952.5 318.5 Q934 307 920 307 L361 307 Q338 307 320 323 Q302 339 303 361 Q303 387 322.5 401 Q342 415 361 415 L459 415 ZM576 415 L698 415 L698 531 L576 531 L576 415 ZM255 502 Q275 499 279 485.5 Q283 472 283 457 L283 -111 Q283 -132 268 -147 Q253 -162 226 -162.5 Q199 -163 185 -148 Q171 -133 171 -111 L171 362 Q132 309 107 291 Q82 273 56 296 Q30 319 30 346 Q30 364 46 389 L92 449 Q124 493 155 563 Q186 633 199.5 676 Q213 719 227 747.5 Q241 776 273.5 776.5 Q306 777 322 757 Q338 737 338 716 Q337 707 323.5 660.5 Q310 614 255 502 ZM734 264 Q821 259 848.5 239.5 Q876 220 883.5 192.5 Q891 165 892 132 L893 -12 Q893 -54 884 -80.5 Q875 -107 851 -125 Q827 -143 734 -143 L538 -143 Q456 -143 430 -126 Q404 -109 397 -87 Q390 -65 390 -13 L390 132 Q390 160 403 212 Q416 264 538 264 L734 264 ZM778 9 L500 9 L500 -21 Q500 -45 529 -45 L744 -45 Q778 -45 778 -20 L778 9 ZM500 104 L778 104 L778 138 Q778 153 770.5 157 Q763 161 741 161 L531 161 Q514 161 507 153 Q500 145 500 141 L500 104 Z" /><glyph glyph-name="uni503C" unicode="&#x503c;" d="M257 512 Q268 503 268.5 489.5 Q269 476 269 463 L268 -110 Q267 -130 253 -150 Q239 -170 211 -169 Q182 -169 169.5 -149 Q157 -129 157 -110 L156 326 Q128 270 95 269 Q62 268 46.5 284.5 Q31 301 31 326 Q31 344 38.5 358.5 Q46 373 79.5 417.5 Q113 462 140.5 531.5 Q168 601 175.5 635 Q183 669 189 706 Q195 743 209 761 Q223 779 269 780 Q315 781 314 718 Q313 690 301.5 645.5 Q290 601 257 512 ZM385 -36 L385 402 Q385 477 411.5 504.5 Q438 532 524 532 L571 532 L575 575 L388 575 Q366 575 348.5 591.5 Q331 608 333 635 Q334 655 349.5 670.5 Q365 686 388 686 L579 686 L581 732 Q581 753 595 769.5 Q609 786 643.5 786.5 Q678 787 694 768.5 Q710 750 708 732 L703 686 L890 686 Q922 686 935 668 Q948 650 948.5 631.5 Q949 613 932.5 594 Q916 575 890 575 L694 575 L690 532 L742 532 Q827 532 852 511 Q877 490 882.5 462 Q888 434 888 402 L888 -36 L929 -36 Q949 -36 963.5 -52 Q978 -68 978 -90 Q977 -113 961.5 -129 Q946 -145 929 -145 L352 -145 Q323 -145 309 -126.5 Q295 -108 296 -90 Q296 -65 314 -50.5 Q332 -36 352 -36 L385 -36 ZM504 390 L773 390 L774 407 Q775 433 738 433 L541 433 Q513 433 508.5 425.5 Q504 418 504 407 L504 390 ZM504 296 L504 248 L773 248 L773 296 L504 296 ZM504 -36 L773 -36 L773 23 L504 23 L504 -36 ZM504 113 L773 113 L773 156 L504 156 L504 113 Z" /><glyph glyph-name="uni5076" unicode="&#x5076;" d="M570 316 L570 356 L488 356 Q407 356 382.5 376.5 Q358 397 358 463 L358 623 Q358 650 363.5 677 Q369 704 391 720 Q413 736 431.5 738.5 Q450 741 488 741 L788 741 Q864 741 885 723 Q906 705 911 678 Q916 651 916 625 L916 461 Q916 400 894.5 378 Q873 356 790 356 L683 356 L683 316 L842 316 Q924 316 944 298 Q964 280 968 253 Q972 226 972 198 L972 -49 Q972 -86 954 -124 Q936 -162 864 -161.5 Q792 -161 772 -145.5 Q752 -130 753 -100 Q754 -70 769.5 -59.5 Q785 -49 798 -49 L822 -53 Q847 -55 853 -47 Q859 -39 859 -25 L859 178 Q859 192 856 200 Q853 208 847.5 212 Q842 216 820 216 L683 216 L683 121 L723 125 Q717 132 713 139.5 Q709 147 708.5 159 Q708 171 715.5 182.5 Q723 194 741 199 Q759 204 768 203 Q782 201 799 184.5 Q816 168 834 120 Q852 72 850.5 53 Q849 34 834 20 Q819 6 797 7 Q765 8 762 24 L757 39 Q534 0 510 2 Q452 5 451.5 39.5 Q451 74 461 89 Q469 102 476.5 104.5 Q484 107 570 114 L570 216 L481 216 Q452 216 447 213 Q442 210 438.5 204 Q435 198 435 178 L435 -116 Q435 -135 419.5 -150.5 Q404 -166 379.5 -167.5 Q355 -169 338.5 -153.5 Q322 -138 322 -115 L322 199 Q322 271 351 293.5 Q380 316 457 316 L570 316 ZM468 587 L570 587 L570 642 L506 642 Q478 642 473.5 637 Q469 632 469 610 L468 587 ZM570 452 L570 499 L468 499 L469 480 Q470 457 474 453.5 Q478 450 506 451 L570 452 ZM801 587 L802 610 Q803 642 769 642 L683 642 L683 587 L801 587 ZM683 452 L769 451 Q785 450 794 455.5 Q803 461 802 481 L801 499 L683 499 L683 452 ZM256 503 Q277 499 280 488.5 Q283 478 283 458 L283 -120 Q283 -138 267 -154.5 Q251 -171 224.5 -171.5 Q198 -172 185 -156.5 Q172 -141 172 -120 L172 363 Q147 324 128.5 309 Q110 294 81.5 293.5 Q53 293 41.5 315 Q30 337 31 355 Q33 373 53 403 L90 456 Q126 511 152 574.5 Q178 638 191.5 680.5 Q205 723 217.5 751 Q230 779 266.5 780.5 Q303 782 316.5 762.5 Q330 743 330.5 725 Q331 707 324 682 Q304 615 256 503 Z" /><glyph glyph-name="uni5149" unicode="&#x5149;" d="M459 469 L459 716 Q459 742 476 759 Q493 776 520 777 Q547 778 566 758.5 Q585 739 585 716 L585 469 L914 469 Q935 469 952 451 Q969 433 969.5 406 Q970 379 951 362.5 Q932 346 914 346 L676 346 L676 2 Q676 -21 684.5 -29.5 Q693 -38 769 -38 Q791 -39 802.5 -36.5 Q814 -34 827.5 -25 Q841 -16 853 24 Q865 64 872 76 Q879 88 902 95.5 Q925 103 953 86 Q984 66 984 27 Q983 0 964 -50.5 Q945 -101 924.5 -124 Q904 -147 875 -155.5 Q846 -164 746 -163 Q676 -163 623.5 -153 Q571 -143 563 -104.5 Q555 -66 555 -37 L555 346 L459 346 Q455 269 452.5 212.5 Q450 156 441 107 Q432 58 412.5 22 Q393 -14 368.5 -39 Q344 -64 304 -95 Q264 -126 213 -143.5 Q162 -161 138 -163 Q114 -165 91.5 -150 Q69 -135 70 -105.5 Q71 -76 87 -63.5 Q103 -51 133 -41.5 Q163 -32 186.5 -23 Q210 -14 245 15.5 Q280 45 305 83.5 Q330 122 333 203.5 Q336 285 336 325 L336 346 L115 346 Q92 346 76 361.5 Q60 377 60.5 405.5 Q61 434 76.5 452 Q92 470 115 470 L459 469 ZM258 728 Q275 727 293.5 715 Q312 703 345.5 642 Q379 581 378.5 553 Q378 525 357 511 Q336 497 319 498 Q305 498 290.5 505 Q276 512 268.5 522.5 Q261 533 245 569 L206 642 Q196 661 196.5 680.5 Q197 700 216.5 714 Q236 728 258 728 ZM793 733 Q818 731 833.5 715.5 Q849 700 851.5 680.5 Q854 661 837 625 Q788 524 771 506 Q754 488 730 484.5 Q706 481 685 497 Q664 513 665 540 Q665 554 690.5 599 Q716 644 733.5 680.5 Q751 717 763 725.5 Q775 734 793 733 Z" /><glyph glyph-name="uni5165" unicode="&#x5165;" d="M529 312 Q487 224 441.5 157.5 Q396 91 321 7 Q246 -77 175 -118.5 Q104 -160 78.5 -131 Q53 -102 53 -75 Q53 -54 63.5 -40 Q74 -26 97 -11 L159 28 Q269 104 355.5 243.5 Q442 383 459 446 L467 474 Q437 581 371 631 L346 649 Q322 666 313 689 Q304 712 320.5 736 Q337 760 370 761 Q389 761 424.5 743 Q460 725 496.5 687.5 Q533 650 547.5 619.5 Q562 589 603.5 462.5 Q645 336 688.5 257 Q732 178 785.5 113.5 Q839 49 897 12 L944 -17 Q981 -44 983 -69 Q985 -94 976 -110 Q957 -143 915 -140 Q895 -139 842.5 -116 Q790 -93 689 32 Q588 157 529 312 Z" /><glyph glyph-name="uni5173" unicode="&#x5173;" d="M436 306 Q437 323 437.5 330.5 Q438 338 440 387 L442 453 L152 453 Q133 453 114 467 Q95 481 96 510 Q96 534 114 550 Q132 566 152 566 L333 566 Q318 587 302.5 613 Q287 639 271.5 659 Q256 679 251 689.5 Q246 700 247 713 Q247 724 257 745 Q267 766 305 767 Q325 767 344.5 753 Q364 739 390 702.5 Q416 666 422.5 650 Q429 634 429.5 623 Q430 612 427 603 Q420 584 390 566 L635 566 Q611 580 609 592 Q607 604 611 615 Q613 622 627 641.5 Q641 661 655.5 690.5 Q670 720 682.5 739 Q695 758 724 759 Q744 759 762.5 748.5 Q781 738 789 726 Q797 714 797.5 698.5 Q798 683 778 652 Q740 593 721 566 L874 566 Q886 566 907.5 554.5 Q929 543 929.5 514.5 Q930 486 914.5 469.5 Q899 453 876 453 L570 453 Q565 385 565 370 L562 306 L910 306 Q931 306 951 288.5 Q971 271 969 243 Q967 226 953 211 Q939 196 913 196 L625 196 Q646 159 663.5 136 Q681 113 716.5 82 Q752 51 786 27.5 Q820 4 855 -11 Q890 -26 919.5 -34.5 Q949 -43 965 -53.5 Q981 -64 981 -91 Q980 -109 964 -134.5 Q948 -160 913 -162 Q860 -166 773.5 -110.5 Q687 -55 635.5 -8.5 Q584 38 565 73 L527 135 Q495 60 463.5 21 Q432 -18 384.5 -50.5 Q337 -83 298.5 -101.5 Q260 -120 205 -142.5 Q150 -165 122 -164.5 Q94 -164 77 -146 Q60 -128 62.5 -94 Q65 -60 79 -53 Q93 -46 183 -23 Q273 0 332.5 61 Q392 122 405 160 L418 196 L116 196 Q100 196 78 209.5 Q56 223 63 262 Q67 284 85 295 Q103 306 122 306 L436 306 Z" /><glyph glyph-name="uni5177" unicode="&#x5177;" d="M226 198 L226 605 Q226 638 231 664 Q236 690 264.5 715 Q293 740 379 740 L659 740 Q743 740 776.5 710 Q810 680 810 605 L810 198 L923 198 Q939 198 959 184.5 Q979 171 979 140 Q978 112 959 98 Q940 84 923 84 L98 84 Q80 84 61.5 99.5 Q43 115 44 145 Q45 169 61.5 183.5 Q78 198 98 198 L226 198 ZM346 198 L686 198 L686 247 L346 247 L346 198 ZM346 333 L686 333 L686 376 L346 376 L346 333 ZM346 460 L686 460 L686 501 L346 501 L346 460 ZM346 589 L686 589 L686 608 Q686 620 680 626.5 Q674 633 652 633 L380 633 Q359 633 352.5 627 Q346 621 346 606 L346 589 ZM121 -93 Q122 -70 135.5 -56.5 Q149 -43 180 -30 Q211 -17 247 4.5 Q283 26 309.5 44.5 Q336 63 350.5 69.5 Q365 76 381 76 Q405 75 422 58 Q439 41 439.5 20 Q440 -1 432 -14 Q419 -35 321.5 -96.5 Q224 -158 187.5 -157 Q151 -156 135 -135.5 Q119 -115 121 -93 ZM899 -88 Q900 -119 881.5 -137.5 Q863 -156 838 -156 Q821 -157 805.5 -149.5 Q790 -142 756 -117.5 Q722 -93 664.5 -61 Q607 -29 598 -15.5 Q589 -2 590 14 Q590 41 607 55.5 Q624 70 649 71 Q680 71 720.5 50.5 Q761 30 828.5 -11 Q896 -52 899 -88 Z" /><glyph glyph-name="uni5185" unicode="&#x5185;" d="M439 628 Q437 682 441.5 721 Q446 760 478 774 Q510 788 537 772 Q576 747 570 711 L565 628 L748 628 Q834 628 868 595.5 Q902 563 902 486 L902 -32 Q902 -96 861.5 -127 Q821 -158 752 -156 Q639 -154 642 -83 Q642 -57 657.5 -42.5 Q673 -28 692 -27 Q695 -27 713 -30.5 Q731 -34 746 -32 Q765 -31 771.5 -23 Q778 -15 778 10 L778 456 Q778 474 776.5 487 Q775 500 765.5 510 Q756 520 723 520 L558 520 Q550 447 548 435 L542 403 Q551 428 578 426 Q592 424 608.5 414 Q625 404 679 326 Q733 248 742.5 223 Q752 198 751.5 175.5 Q751 153 731.5 136.5 Q712 120 689 122 Q659 124 646 141.5 Q633 159 623 180 Q613 201 591 238.5 Q569 276 551 300 Q533 324 525 340 Q503 285 479 248 Q455 211 404.5 162 Q354 113 319 113 Q284 112 270.5 134.5 Q257 157 259 178 Q259 196 267.5 209 Q276 222 303 242.5 Q330 263 345.5 278.5 Q361 294 383 330 Q405 366 416 398.5 Q427 431 431 469 L436 520 L291 520 Q253 520 245 512 Q237 504 235 485 Q233 466 233 456 L233 -61 Q233 -140 171 -137 Q114 -135 114 -61 L114 486 Q114 524 119 551 Q124 578 145.5 599.5 Q167 621 192.5 624.5 Q218 628 260 628 L439 628 Z" /><glyph glyph-name="uni51FA" unicode="&#x51fa;" d="M448 -9 L448 320 L299 320 Q260 320 214.5 325 Q169 330 157 382 Q145 434 145 456 L145 660 Q145 684 164.5 698 Q184 712 208.5 713.5 Q233 715 254 700 Q275 685 275 660 L275 475 Q275 451 280.5 443.5 Q286 436 314 436 L448 436 L448 723 Q448 742 464.5 757.5 Q481 773 505 775 Q527 776 551 761.5 Q575 747 575 723 L575 436 L716 436 Q739 436 747 445 Q755 454 755 475 L755 654 Q755 675 770.5 690.5 Q786 706 812 708 Q834 709 856 694 Q878 679 878 654 L878 456 Q878 390 844 355 Q810 320 731 320 L575 320 L575 -9 L734 -9 Q767 -9 772.5 2 Q778 13 778 36 L778 223 Q778 248 796 261.5 Q814 275 837 277 Q859 278 882 265 Q905 252 905 223 L905 9 Q905 -19 887 -75.5 Q869 -132 746 -132 L268 -132 Q117 -132 117 7 L117 237 Q117 258 132 274 Q147 290 174 292 Q197 293 221 278 Q245 263 245 237 L245 34 Q245 13 250 2 Q255 -9 290 -9 L448 -9 Z" /><glyph glyph-name="uni51FB" unicode="&#x51fb;" d="M442 424 L442 530 L174 530 Q157 530 136 546 Q115 562 120 598 Q122 619 138 634 Q154 649 176 649 L442 649 L442 733 Q442 747 457.5 767.5 Q473 788 516 785 Q538 783 555 768.5 Q572 754 572 735 L572 649 L834 649 Q853 649 872 635 Q891 621 896 589.5 Q901 558 875 544 Q849 530 834 530 L572 530 L572 424 L890 424 Q917 424 939 404 Q961 384 959 358 Q956 329 932.5 316.5 Q909 304 890 304 L572 304 L572 -17 L709 -17 Q728 -17 735.5 -9.5 Q743 -2 743 22 L743 221 Q743 248 765.5 264 Q788 280 812 279 Q835 277 853 259.5 Q871 242 871 221 L871 5 Q871 -72 835.5 -102 Q800 -132 719 -132 L312 -132 Q226 -132 196 -105.5 Q166 -79 160 -48 Q154 -17 154 5 L154 218 Q154 230 163 252 Q172 274 212 274.5 Q252 275 266 253.5 Q280 232 280 216 L280 32 Q280 -1 288.5 -9 Q297 -17 316 -17 L442 -17 L442 304 L130 304 Q103 304 83 321 Q63 338 63 364.5 Q63 391 84 407.5 Q105 424 128 424 L442 424 Z" /><glyph glyph-name="uni5206" unicode="&#x5206;" d="M98 316 Q74 319 62 338 Q50 357 51 378 Q52 395 60 406 Q68 417 102.5 445.5 Q137 474 201.5 544 Q266 614 293 669 Q320 724 342.5 746.5 Q365 769 402.5 745 Q440 721 440 687 Q439 676 433 659 Q427 642 393 596 L337 518 Q307 479 238.5 407.5 Q170 336 143 324 Q116 312 98 316 ZM469 277 Q465 222 462.5 181.5 Q460 141 450.5 85.5 Q441 30 399 -29 Q357 -88 272 -125.5 Q187 -163 160 -159 Q130 -156 118.5 -137 Q107 -118 106.5 -103.5 Q106 -89 112 -78 Q118 -66 128.5 -60.5 Q139 -55 214.5 -27.5 Q290 0 312 55 Q334 110 340 157 Q346 204 347 226 L348 277 L277 277 Q251 277 236.5 294.5 Q222 312 223 333 Q223 357 239 372 Q255 387 277 387 L648 387 Q703 387 741 349 Q779 311 782.5 275.5 Q786 240 786 210 L786 94 Q785 58 783 23.5 Q781 -11 777 -41 Q773 -71 754 -95.5 Q735 -120 695 -139 Q655 -158 600 -156 Q512 -154 514 -81 Q514 -58 526.5 -44.5 Q539 -31 558 -29 Q558 -29 593.5 -32 Q629 -35 642.5 -18.5 Q656 -2 659 27 Q662 56 661.5 113 Q661 170 661.5 191 Q662 212 662 221 Q661 255 651.5 266 Q642 277 609 277 L469 277 ZM564 730 Q563 744 574 761 Q585 778 623 778 Q646 777 662 766 Q678 755 699.5 695.5 Q721 636 749.5 590.5 Q778 545 818 503 Q858 461 904.5 437 Q951 413 962.5 399.5 Q974 386 974.5 363.5 Q975 341 963.5 322.5 Q952 304 923 301 Q866 294 784.5 368 Q703 442 669 494 Q635 546 599.5 622.5 Q564 699 564 730 Z" /><glyph glyph-name="uni5207" unicode="&#x5207;" d="M290 473 Q427 495 450 492 Q492 486 495 452 Q498 418 474 399 Q460 388 421 381 Q382 374 375 373 L332 367 L290 360 L290 171 Q350 207 385 231 Q420 255 438.5 262.5 Q457 270 474 269 Q513 264 513.5 234.5 Q514 205 507 191 Q494 166 391 95 Q288 24 239.5 6.5 Q191 -11 168.5 6.5 Q146 24 148 49 Q148 57 153 69 L161 88 Q170 112 170 157 L170 342 Q125 333 104 333 Q41 331 38 367 Q35 403 50 421 Q59 432 72 437 Q85 442 170 457 L170 684 Q170 711 187 727.5 Q204 744 228 745.5 Q252 747 271 729 Q290 711 290 684 L290 473 ZM568 603 L465 603 Q442 603 425 618.5 Q408 634 407.5 657.5 Q407 681 422 697.5 Q437 714 465 714 L810 714 Q874 714 913.5 680 Q953 646 953 578 L953 368 L951 231 L950 88 Q947 -3 927.5 -48.5 Q908 -94 855.5 -113.5 Q803 -133 756 -132 Q678 -132 675.5 -87.5 Q673 -43 688 -26 Q699 -14 711 -11 Q723 -8 758 -7 Q793 -6 807.5 18.5 Q822 43 824 77.5 Q826 112 827.5 169.5 Q829 227 830 301 Q830 317 830 391.5 Q830 466 830 513 L830 554 Q830 560 827.5 573.5 Q825 587 817.5 595 Q810 603 781 603 L691 603 Q691 546 690.5 481.5 Q690 417 683.5 307 Q677 197 656.5 118.5 Q636 40 589.5 -10 Q543 -60 505 -87 Q467 -114 441.5 -126 Q416 -138 386 -135 Q356 -132 344 -110 Q332 -88 334 -67 Q336 -46 351 -34 Q366 -22 423.5 6 Q481 34 519.5 110.5 Q558 187 563 326.5 Q568 466 568 490 L568 603 Z" /><glyph glyph-name="uni5230" unicode="&#x5230;" d="M383 624 Q388 613 389.5 603.5 Q391 594 379 576 Q368 559 345 539 L308 507 L275 478 Q383 484 448 500 Q440 508 433 517 Q426 526 425 543.5 Q424 561 442 578.5 Q460 596 487 594 Q501 592 518.5 581 Q536 570 570.5 524 Q605 478 618 456 Q631 434 632 413 Q633 392 617 373 Q601 354 573 355 Q552 355 541 367 L528 385 L516 400 Q256 361 153 358 Q81 355 78 392 Q75 429 87 448 Q96 463 141.5 500 Q187 537 206 557.5 Q225 578 257 624 L130 624 Q109 624 90.5 638 Q72 652 71.5 679.5 Q71 707 91 723 Q111 739 132 739 L551 739 Q567 739 588 725.5 Q609 712 609.5 679.5 Q610 647 588.5 635.5 Q567 624 551 624 L383 624 ZM290 9 L290 133 L141 133 Q126 133 108 146 Q90 159 91 191 Q91 216 107 230.5 Q123 245 141 245 L290 245 L290 297 Q290 315 302 332 Q314 349 343.5 351 Q373 353 389 334 Q405 315 405 297 L405 245 L532 245 Q547 245 566 232 Q585 219 585 189 Q584 159 565 146 Q546 133 532 133 L405 133 L405 26 Q468 36 503 44 Q538 52 577 53.5 Q616 55 616.5 18.5 Q617 -18 607 -31 Q598 -43 566 -59.5 Q534 -76 354 -100 Q174 -124 124 -119 Q62 -115 60 -78 Q58 -41 72 -24 Q81 -14 91 -11 Q101 -8 150.5 -6 Q200 -4 290 9 ZM645 128 L645 616 Q645 629 655.5 645.5 Q666 662 698.5 663.5 Q731 665 745.5 648.5 Q760 632 760 617 L760 128 Q760 111 745.5 91.5 Q731 72 698 75 Q666 77 655.5 95 Q645 113 645 128 ZM941 709 L941 -27 Q941 -59 927.5 -99.5 Q914 -140 818 -145 Q754 -149 735.5 -123 Q717 -97 718 -75 Q718 -51 732.5 -39 Q747 -27 767 -25 L799 -25 Q814 -25 821.5 -18 Q829 -11 829 22 L829 709 Q829 722 841 737 Q853 752 885 752 Q910 751 925.5 737 Q941 723 941 709 Z" /><glyph glyph-name="uni5237" unicode="&#x5237;" d="M473 407 L473 346 L513 346 Q556 346 574.5 343 Q593 340 605 325.5 Q617 311 621.5 285.5 Q626 260 626 238 L626 24 Q626 -20 599 -42 Q572 -64 529 -61 Q482 -59 478 -29.5 Q474 0 482 15 Q489 29 501.5 31 Q514 33 517.5 37 Q521 41 521 76 L521 218 Q521 234 515 240.5 Q509 247 496 247 L473 247 L473 -105 Q473 -122 457.5 -139 Q442 -156 416 -154 Q391 -154 377.5 -138 Q364 -122 364 -104 L364 247 L350 247 Q332 247 332 218 L332 -27 Q332 -41 319 -57 Q306 -73 279 -71 Q253 -70 243 -55 Q233 -40 233 -27 L233 258 Q226 177 218 122.5 Q210 68 191 7.5 Q172 -53 149 -88 Q126 -123 100 -124 Q74 -125 56 -111.5 Q38 -98 37 -74.5 Q36 -51 53 -14 Q83 49 99.5 108 Q116 167 120 285 L122 495 Q123 547 123 556 L123 581 Q123 632 126 663 Q129 694 157.5 719.5 Q186 745 263 745 L470 745 Q544 745 570 722.5 Q596 700 602.5 671.5 Q609 643 609 621 L609 529 Q609 506 603 478.5 Q597 451 574.5 429 Q552 407 492 407 L473 407 ZM234 324 Q240 332 248 339 Q256 346 298 346 L364 346 L364 407 L237 407 L234 324 ZM237 514 L455 515 Q483 515 489.5 524.5 Q496 534 496 551 L496 591 Q496 607 490 619.5 Q484 632 455 632 L276 632 Q251 632 244 622.5 Q237 613 237 591 L237 514 ZM670 108 L670 600 Q670 613 680.5 629.5 Q691 646 723 647.5 Q755 649 770.5 632 Q786 615 786 601 L786 108 Q786 91 770.5 72.5 Q755 54 724 56 Q692 57 681 75.5 Q670 94 670 108 ZM956 716 L956 -39 Q956 -71 943 -111 Q930 -151 833 -157 Q766 -162 750.5 -137.5 Q735 -113 737 -90 Q738 -67 750 -54.5 Q762 -42 782 -38 L815 -37 Q830 -37 837 -31 Q844 -25 844 9 L844 716 Q844 729 856 744.5 Q868 760 901 760 Q925 759 940.5 744.5 Q956 730 956 716 Z" /><glyph glyph-name="uni52A0" unicode="&#x52a0;" d="M728 621 L812 621 Q921 621 936.5 571.5 Q952 522 952 492 L952 90 Q952 69 945.5 43 Q939 17 915.5 -9.5 Q892 -36 812 -36 L728 -36 Q654 -36 629 -16.5 Q604 3 596 31 Q588 59 588 90 L588 492 Q588 514 593 542 Q598 570 627.5 595.5 Q657 621 728 621 ZM836 130 L836 453 Q836 505 797 505 L752 505 Q721 505 715 488.5 Q709 472 709 453 L709 130 Q709 109 716.5 95 Q724 81 752 81 L799 81 Q809 81 822.5 90.5 Q836 100 836 130 ZM229 622 Q228 636 228 643 L228 697 Q227 732 233 745 Q246 773 276.5 777 Q307 781 328 767 Q341 757 348 742 Q355 727 355 686 L355 647 L354 622 L407 621 Q474 619 501 596.5 Q528 574 533.5 546.5 Q539 519 539 483 L539 468 Q539 381 539 333 Q539 285 539 265 Q538 225 536.5 169.5 Q535 114 531 65.5 Q527 17 515 -21.5 Q503 -60 466 -97 Q429 -134 365 -134 Q315 -135 297.5 -111 Q280 -87 282 -59 Q282 -39 292.5 -25 Q303 -11 321 -9 Q323 -9 355.5 -12 Q388 -15 400 20 Q412 55 416 96.5 Q420 138 422 194 Q422 219 421.5 282 Q421 345 421.5 394 Q422 443 421.5 453.5 Q421 464 421.5 472 Q422 480 421 486 Q418 497 412.5 500.5 Q407 504 382 505 L345 506 Q343 463 341.5 424 Q340 385 333.5 299.5 Q327 214 310 144 Q293 74 256 4.5 Q219 -65 183.5 -95 Q148 -125 122 -127.5 Q96 -130 78 -113 Q60 -96 60 -71.5 Q60 -47 69.5 -33.5 Q79 -20 131.5 36.5 Q184 93 202 210.5 Q220 328 224 431 L227 506 L110 505 Q90 504 75 522 Q60 540 61 567 Q61 591 75 605.5 Q89 620 110 621 L229 622 Z" /><glyph glyph-name="uni52A1" unicode="&#x52a1;" d="M429 426 Q382 475 341 535 Q289 471 252 449.5 Q215 428 190 444 Q165 460 161 480 Q157 500 166 518 Q171 528 212 568 Q253 608 280.5 646.5 Q308 685 329 721.5 Q350 758 368.5 772 Q387 786 411 784 Q432 781 446.5 765.5 Q461 750 465 738 Q469 726 466 718 L460 700 L747 700 Q770 700 790.5 686 Q811 672 818.5 653 Q826 634 826 621 Q824 583 770 526 Q716 469 638 413 Q715 378 755 368.5 Q795 359 835 355 L920 346 Q947 341 962 329.5 Q977 318 978 277.5 Q979 237 917 228 Q884 223 807.5 239 Q731 255 675 273 Q619 291 527 348 Q430 301 301 264 Q172 227 124 227 Q59 226 56 265.5 Q53 305 68 323 Q78 335 92.5 339 Q107 343 186 350.5 Q265 358 429 426 ZM662 593 L437 593 Q482 526 501 511 L533 483 Q598 523 628.5 548 Q659 573 664 581.5 Q669 590 667 591 L662 593 ZM434 210 Q436 240 444.5 274 Q453 308 494 306 Q535 304 554 282 Q570 261 567 249 L561 210 L731 210 Q825 210 836.5 170 Q848 130 848 95 Q846 -4 842 -35 Q838 -66 815 -119 Q792 -172 647 -168 Q585 -167 573.5 -143 Q562 -119 564 -102 Q565 -86 573.5 -70.5 Q582 -55 593 -49 Q604 -43 635.5 -45 Q667 -47 671 -46 Q712 -40 718 -8 Q724 24 724.5 47.5 Q725 71 720 81 Q708 102 677 102 L534 102 Q515 63 490 20.5 Q465 -22 413.5 -61 Q362 -100 329 -115 Q296 -130 237 -152.5 Q178 -175 151.5 -170 Q125 -165 108 -146 Q91 -127 92 -103.5 Q93 -80 99.5 -71 Q106 -62 118.5 -58 Q131 -54 181 -45.5 Q231 -37 289.5 -5.5 Q348 26 370 59 L401 102 L230 102 Q171 102 173 155 Q174 210 230 210 L434 210 Z" /><glyph glyph-name="uni52A8" unicode="&#x52a8;" d="M309 368 Q318 362 323.5 354 Q329 346 323 323 Q321 316 314 300 Q307 284 259 207 L200 113 Q284 119 372 139 Q366 151 363 157 L341 196 Q329 219 331.5 241.5 Q334 264 363.5 277 Q393 290 424 270 Q439 259 463 218 L485 181 Q529 104 517 69 Q510 50 484.5 33.5 Q459 17 441 21 Q425 23 412 41 Q198 -12 112 -17 Q87 -19 73.5 2 Q60 23 55 46 Q50 69 58 91 Q62 102 110 164 Q158 226 200 368 L97 368 Q79 368 64.5 384.5 Q50 401 50 427 Q50 453 65.5 465.5 Q81 478 95 478 L446 478 Q469 478 487 461.5 Q505 445 505 421 Q504 395 487 381.5 Q470 368 450 368 L309 368 ZM423 620 L129 620 Q112 620 95.5 637 Q79 654 82 684 Q83 703 96.5 718 Q110 733 130 733 L423 733 Q437 733 454 719 Q471 705 472.5 679.5 Q474 654 458.5 637 Q443 620 423 620 ZM619 565 Q620 603 618.5 659 Q617 715 620 730 Q630 790 689 785 Q724 781 734.5 760.5 Q745 740 743 699 L736 565 L831 565 Q931 565 945 529.5 Q959 494 960.5 476.5 Q962 459 961 425 Q960 402 959 282 L956 101 Q954 -3 941 -47 Q928 -91 908.5 -112 Q889 -133 822 -159.5 Q755 -186 720 -157 Q707 -148 701.5 -131 Q696 -114 695.5 -94 Q695 -74 706 -59 Q715 -47 724.5 -43.5 Q734 -40 767.5 -37 Q801 -34 815 -10 Q829 14 832.5 46.5 Q836 79 837.5 131.5 Q839 184 841 281.5 Q843 379 841 419 Q840 433 834.5 441 Q829 449 809 449 L731 449 Q728 382 724 309.5 Q720 237 704 152.5 Q688 68 658.5 8 Q629 -52 553 -108.5 Q477 -165 436 -162 Q414 -161 396.5 -146.5 Q379 -132 376 -111.5 Q373 -91 380 -78 Q385 -68 394 -62 Q403 -56 454.5 -27 Q506 2 538 43 Q570 84 588.5 169 Q607 254 611 378 L613 450 L578 450 Q559 450 538.5 465 Q518 480 522 513 Q524 540 543.5 552.5 Q563 565 581 565 L619 565 Z" /><glyph glyph-name="uni52A9" unicode="&#x52a9;" d="M113 98 L113 615 Q113 631 118.5 662.5 Q124 694 152.5 720 Q181 746 257 746 L341 746 Q413 746 440.5 722.5 Q468 699 475 672 Q482 645 482 608 L482 171 Q525 182 544.5 162.5 Q564 143 562 118 Q558 86 540.5 75.5 Q523 65 341 21 Q159 -23 110 -24 Q38 -27 41 37 Q43 84 113 98 ZM229 541 L368 541 L368 603 Q368 614 360.5 627 Q353 640 331 640 L265 640 Q242 640 235.5 626.5 Q229 613 229 603 L229 541 ZM368 444 L229 444 L229 344 L368 344 L368 444 ZM368 246 L229 246 L229 119 Q295 129 368 144 L368 246 ZM633 468 L563 468 Q542 468 528 482 Q514 496 513.5 521 Q513 546 527 560 Q541 574 563 574 L637 574 Q637 604 636.5 638.5 Q636 673 637 686 Q637 711 641.5 743.5 Q646 776 685.5 776.5 Q725 777 742 752 Q748 741 751 718.5 Q754 696 752 649.5 Q750 603 751 596 L752 574 L806 574 Q895 574 918.5 547.5 Q942 521 946.5 495.5 Q951 470 951 433 L951 394 L952 129 Q951 73 948 25 Q945 -23 930.5 -52.5 Q916 -82 876 -114.5 Q836 -147 769 -145 Q741 -145 715.5 -129.5 Q690 -114 693 -81 Q696 -40 737 -32 L764 -31 Q821 -28 829.5 25.5 Q838 79 839 138 L842 267 Q842 267 842 387 L842 419 Q842 468 800 468 L747 468 Q744 433 740 352 Q736 271 730 212 Q724 153 701.5 87 Q679 21 645.5 -25 Q612 -71 571 -100.5 Q530 -130 495.5 -144.5 Q461 -159 437 -157.5 Q413 -156 393.5 -138 Q374 -120 378 -93.5 Q382 -67 396 -57 Q410 -47 461 -23 Q512 1 548.5 51 Q585 101 600 154 Q615 207 624 298 Q633 389 633 448 L633 468 Z" /><glyph glyph-name="uni533A" unicode="&#x533a;" d="M863 -119 L272 -119 Q192 -119 159 -79.5 Q126 -40 126 21 L126 559 Q126 588 134.5 619 Q143 650 171 675.5 Q199 701 289 701 L845 701 Q877 701 891 681 Q905 661 907 641.5 Q909 622 890.5 604 Q872 586 848 586 L293 586 Q267 586 260.5 579 Q254 572 254 566 Q254 560 254 551 L254 26 Q254 8 261 3 Q268 -2 284 -2 L865 -2 Q882 -2 903 -13.5 Q924 -25 928.5 -52 Q933 -79 912 -99 Q891 -119 863 -119 ZM515 283 Q461 336 417.5 373 Q374 410 357.5 428.5 Q341 447 342 470 Q342 488 356 503 Q370 518 397 520 Q420 521 439 510 Q458 499 493 469 L598 373 Q608 385 615.5 395 Q623 405 638.5 431 Q654 457 667 483.5 Q680 510 693 527.5 Q706 545 736 544 Q775 541 786.5 517 Q798 493 798.5 478.5 Q799 464 787 439 Q764 390 689 288 Q816 169 830 148.5 Q844 128 848.5 107.5 Q853 87 835.5 50.5 Q818 14 783.5 25.5 Q749 37 738.5 48.5 Q728 60 698.5 95.5 Q669 131 605 192 Q558 148 491.5 97.5 Q425 47 395 36.5 Q365 26 343 32 Q308 39 301 62.5 Q294 86 295 99 Q296 122 307 131.5 Q318 141 376 168.5 Q434 196 515 283 Z" /><glyph glyph-name="uni5347" unicode="&#x5347;" d="M304 417 L304 568 Q191 537 135.5 540 Q80 543 81 596 Q81 633 102.5 644 Q124 655 165.5 659.5 Q207 664 273.5 682.5 Q340 701 367 713 L436 746 Q462 755 484 755 Q516 753 532 729 Q548 705 548 691 Q547 671 529 651 Q511 631 431 605 L430 417 L637 417 L636 702 Q635 728 650.5 747.5 Q666 767 694 767.5 Q722 768 742.5 749 Q763 730 763 702 L763 417 L904 417 Q927 417 944 400 Q961 383 962.5 358 Q964 333 947 315.5 Q930 298 904 298 L763 298 L763 -90 Q763 -117 744.5 -137 Q726 -157 697 -156.5 Q668 -156 651.5 -137 Q635 -118 636 -90 L637 298 L427 298 Q425 273 424 257 Q423 241 419 208 Q415 175 404 120.5 Q393 66 355 13 Q317 -40 286 -71 Q255 -102 233 -118 Q211 -134 192 -143.5 Q173 -153 147 -152.5 Q121 -152 104.5 -132 Q88 -112 90 -90.5 Q92 -69 101.5 -57 Q111 -45 138.5 -25.5 Q166 -6 216 37 Q266 80 280.5 151.5 Q295 223 297 250 L300 298 L101 298 Q75 298 59.5 318 Q44 338 44 362 Q44 382 59 399.5 Q74 417 101 417 L304 417 Z" /><glyph glyph-name="uni5355" unicode="&#x5355;" d="M449 73 L449 132 L292 132 Q148 132 148 254 L148 453 Q148 471 155.5 499.5 Q163 528 192 553.5 Q221 579 292 579 L334 579 Q298 621 269.5 647 Q241 673 235.5 685.5 Q230 698 233 712 Q235 730 252 747 Q269 764 295 765 Q341 765 371.5 729.5 Q402 694 412 677 Q422 660 424 644 Q426 628 407 604 Q394 588 371 579 L614 579 Q601 595 602 610 Q602 620 611 637 L637 684 L657 721 Q677 755 704.5 756.5 Q732 758 753 741 Q778 719 773 689 Q771 680 755 649 Q739 618 711 579 L721 579 Q793 579 819 557.5 Q845 536 853.5 507 Q862 478 862 453 L862 254 Q862 182 826.5 157 Q791 132 719 132 L571 132 L571 73 L901 73 Q918 73 940 58.5 Q962 44 962 15 Q961 -13 940 -25.5 Q919 -38 901 -38 L571 -38 L571 -115 Q571 -139 554 -155.5 Q537 -172 512 -174 Q487 -176 468 -156.5 Q449 -137 449 -115 L449 -38 L99 -38 Q80 -38 63.5 -24.5 Q47 -11 46 12.5 Q45 36 61 54.5 Q77 73 101 73 L449 73 ZM449 235 L449 300 L268 300 L268 267 Q268 248 275 241.5 Q282 235 299 235 L449 235 ZM449 471 L307 471 Q279 471 273.5 455.5 Q268 440 268 434 L268 399 L449 399 L449 471 ZM571 235 L704 235 Q730 235 737 241 Q744 247 744 264 L744 300 L571 300 L571 235 ZM571 399 L744 399 L744 437 Q744 471 702 471 L571 471 L571 399 Z" /><glyph glyph-name="uni5361" unicode="&#x5361;" d="M418 419 L418 721 Q418 742 435 757 Q452 772 477.5 772.5 Q503 773 524.5 756.5 Q546 740 546 721 L546 663 L835 663 Q860 663 874.5 644.5 Q889 626 889 605 Q888 581 873.5 565 Q859 549 835 549 L546 549 L546 419 L921 419 Q946 419 961 401 Q976 383 976 360 Q975 306 921 306 L558 306 L558 -102 Q558 -125 536.5 -140.5 Q515 -156 491 -156.5 Q467 -157 448.5 -142.5 Q430 -128 430 -102 L430 306 L107 306 Q86 306 72 320.5 Q58 335 57 361 Q56 387 69 403 Q82 419 107 419 L418 419 ZM598 186 Q595 203 612 224 Q629 245 659 245 Q672 244 687 236.5 Q702 229 727 207 Q752 185 803 144.5 Q854 104 881 69 Q908 34 906.5 12.5 Q905 -9 889 -27 Q873 -45 848 -44 Q828 -44 801 -22 L720 55 L629 139 Q599 175 598 186 Z" /><glyph glyph-name="uni5373" unicode="&#x5373;" d="M214 262 L214 48 Q302 72 367 106 Q357 123 346.5 140.5 Q336 158 334 176 Q332 194 347.5 214.5 Q363 235 396 233 Q416 231 434.5 214 Q453 197 481.5 144.5 Q510 92 521 66 Q532 40 533 20.5 Q534 1 518 -18 Q502 -37 470 -34 Q441 -32 436 -19 L417 12 Q270 -57 176.5 -93.5 Q83 -130 85 -34 Q85 -24 90 -3.5 Q95 17 97 28.5 Q99 40 99 61 L99 620 Q99 743 237 743 L347 743 Q468 743 481 690 Q494 637 494 618 L494 387 Q494 320 463 291 Q432 262 355 262 L214 262 ZM378 550 L378 598 Q378 607 371 619.5 Q364 632 344 632 L246 632 Q214 632 214 598 L214 550 L378 550 ZM214 369 L339 369 Q360 369 369 379.5 Q378 390 378 399 L378 444 L214 444 L214 369 ZM809 151 L809 572 Q809 583 800 596.5 Q791 610 764 610 L717 610 Q695 610 687.5 597.5 Q680 585 680 574 L679 -108 Q678 -129 660.5 -144.5 Q643 -160 619 -159 Q588 -158 576.5 -140.5 Q565 -123 565 -108 L565 593 Q565 647 598 684 Q631 721 703 721 L788 721 Q854 721 883.5 691 Q913 661 918.5 640 Q924 619 924 591 L923 91 Q922 67 913.5 40.5 Q905 14 867 -4 Q829 -22 791 -21 Q722 -20 720.5 16.5 Q719 53 723 63 Q728 77 738.5 84 Q749 91 759 93 L786 97 Q798 100 803.5 108 Q809 116 809 151 Z" /><glyph glyph-name="uni5374" unicode="&#x5374;" d="M258 394 L258 508 L152 508 Q130 508 113 522.5 Q96 537 97 564 Q97 587 112.5 601.5 Q128 616 152 617 L258 619 L258 719 Q258 737 271.5 754.5 Q285 772 314.5 772.5 Q344 773 360 755 Q376 737 377 719 L378 619 L487 619 Q511 619 526.5 601 Q542 583 542 562 Q541 542 526 525.5 Q511 509 487 509 L378 508 L378 394 L506 394 Q530 394 545.5 376 Q561 358 561 337 Q560 317 544.5 300.5 Q529 284 506 284 L324 284 Q331 279 336.5 275 Q342 271 347 261.5 Q352 252 351.5 236 Q351 220 326 177 Q301 134 254 64 Q330 73 410 83 Q398 108 392.5 120 Q387 132 384 140.5 Q381 149 382 169.5 Q383 190 414.5 206.5 Q446 223 479 196 Q492 184 516 140 L554 56 Q572 14 569 -6.5 Q566 -27 544 -42.5 Q522 -58 499 -54 Q470 -51 465 -36 L454 -14 Q212 -50 174.5 -57 Q137 -64 117 -54.5 Q97 -45 85.5 -22 Q74 1 84.5 23.5 Q95 46 120 74 Q145 102 176 148 Q207 194 221.5 229.5 Q236 265 241 271 Q246 277 256 284 L115 284 Q93 284 76.5 299 Q60 314 60 341 Q60 364 75.5 379 Q91 394 115 394 L258 394 ZM831 179 L831 559 Q831 578 826 587 Q821 596 794 596 L754 596 Q722 596 716 587.5 Q710 579 710 559 L710 -116 Q710 -133 693 -150 Q676 -167 649 -166 Q623 -166 607.5 -149.5 Q592 -133 592 -115 L592 599 Q592 631 597.5 650 Q603 669 621 689 Q639 709 708 709 L836 709 Q907 709 923 690.5 Q939 672 944.5 649 Q950 626 950 597 L950 90 Q950 57 936.5 35 Q923 13 856.5 -9 Q790 -31 762 -6 Q750 3 744.5 21 Q739 39 740 56 Q740 78 750 91 Q760 104 779 108 L799 110 Q818 113 824.5 121.5 Q831 130 831 179 Z" /><glyph glyph-name="uni539F" unicode="&#x539f;" d="M649 637 L633 578 L737 578 Q812 578 836 558 Q860 538 864 513.5 Q868 489 868 466 L868 277 Q868 213 846.5 186.5 Q825 160 737 159 L655 158 L656 -58 Q656 -97 645 -118.5 Q634 -140 600 -157 Q566 -174 505 -168 Q472 -166 450 -148.5 Q428 -131 431 -97 Q432 -73 445 -62.5 Q458 -52 468 -51 Q472 -51 496 -55 Q520 -59 528 -51 Q536 -43 536 -21 L535 158 L455 159 Q377 159 357 175.5 Q337 192 332.5 213 Q328 234 328 277 L328 466 Q328 532 353 555 Q378 578 450 578 L502 578 Q510 608 515 637 L315 637 Q283 637 275 629.5 Q267 622 268 598 Q269 574 268.5 548.5 Q268 523 268.5 433 Q269 343 264 249 Q261 199 255 152 Q249 105 236.5 68 Q224 31 201 -20 Q178 -71 159 -87 Q140 -103 112 -106 Q84 -109 64.5 -85.5 Q45 -62 45 -37 Q45 -19 58 2 L91 47 Q113 80 125.5 137.5 Q138 195 141.5 242 Q145 289 145.5 373.5 Q146 458 145.5 467.5 Q145 477 143.5 547 Q142 617 144 647 Q144 672 150.5 693.5 Q157 715 182 732.5 Q207 750 287 750 L898 750 Q914 750 932.5 737.5 Q951 725 954 694 Q957 663 936 650 Q915 637 899 637 L649 637 ZM749 321 L446 320 L446 299 Q446 281 452.5 274 Q459 267 483 267 L711 267 Q736 267 741.5 273.5 Q747 280 748 299 L749 321 ZM446 419 L749 419 L748 443 Q747 463 740 468 Q733 473 711 473 L483 473 Q458 473 452 467 Q446 461 446 443 L446 419 ZM281 -127 Q259 -130 237 -116.5 Q215 -103 218 -66 Q219 -46 227.5 -38.5 Q236 -31 249.5 -21.5 Q263 -12 294.5 21.5 Q326 55 346 88.5 Q366 122 375.5 131.5 Q385 141 408.5 146 Q432 151 453.5 131 Q475 111 475 86 Q474 62 448 28.5 Q422 -5 377.5 -54 Q333 -103 314 -114.5 Q295 -126 281 -127 ZM699 80 Q701 111 720.5 124.5 Q740 138 757 139 Q776 139 818 111 Q860 83 929 13 Q998 -57 973.5 -95.5 Q949 -134 915 -132 Q894 -131 880 -119 Q866 -107 845.5 -83 Q825 -59 790.5 -25 Q756 9 734 25 Q712 41 704.5 53 Q697 65 699 80 Z" /><glyph glyph-name="uni53C2" unicode="&#x53c2;" d="M287 373 L95 373 Q76 373 63.5 385.5 Q51 398 49.5 419.5 Q48 441 60.5 460.5 Q73 480 95 480 L380 480 Q395 498 410 525 Q379 523 279 524 Q179 525 172 557 Q165 589 173 606 Q180 621 190.5 627.5 Q201 634 252.5 656 Q304 678 373 735 Q442 792 468 787 Q494 782 512.5 762 Q531 742 526 724 Q523 714 513 705 Q503 696 389 625 Q557 616 665 617 Q637 641 618 658.5 Q599 676 595.5 689.5 Q592 703 599 722 Q606 741 627.5 748.5 Q649 756 672 748 Q698 737 765.5 675 Q833 613 844 590.5 Q855 568 854.5 552 Q854 536 835 517 Q816 498 792 502 Q775 504 753 526 L494 525 Q522 519 527.5 507 Q533 495 531 490 L527 480 L931 480 Q941 480 956 468 Q971 456 972.5 427.5 Q974 399 957.5 386 Q941 373 927 373 L727 373 Q772 321 813 295.5 Q854 270 895.5 253 Q937 236 977 224 Q1017 212 994 157 Q979 124 948 120 Q892 112 785 182 Q678 252 634 317 L594 373 L448 373 Q340 262 240.5 203.5 Q141 145 102 147 Q66 148 54 174 Q42 200 45 216 Q49 240 64 247 Q79 254 117 266.5 Q155 279 202.5 308.5 Q250 338 287 373 ZM748 88 Q766 100 781.5 103.5 Q797 107 819 95 Q845 79 849.5 53.5 Q854 28 839 10 Q826 -4 693.5 -66.5 Q561 -129 462.5 -149.5 Q364 -170 221 -182 Q158 -188 148 -165.5 Q138 -143 141 -120 Q142 -101 150.5 -89.5 Q159 -78 183 -75 Q188 -75 248.5 -77 Q309 -79 452.5 -41.5 Q596 -4 653 29 Q710 62 748 88 ZM230 83 Q210 97 209.5 120 Q209 143 220 157 Q227 166 239.5 172 Q252 178 296.5 193.5 Q341 209 416 250.5 Q491 292 515 308 Q539 324 558 323 Q585 320 596.5 300.5 Q608 281 607 264 Q605 248 589.5 228 Q574 208 429.5 140.5 Q285 73 262 74.5 Q239 76 230 83 ZM308 -36 Q297 -33 288 -20 Q279 -7 278.5 9.5 Q278 26 284 37 Q291 51 307.5 57.5 Q324 64 363 74 Q402 84 468.5 112.5 Q535 141 582 168.5 Q629 196 645 199 Q684 206 700 181.5 Q716 157 714 141 Q712 130 695 109 Q678 88 531 28.5 Q384 -31 350.5 -35.5 Q317 -40 308 -36 Z" /><glyph glyph-name="uni53CD" unicode="&#x53cd;" d="M299 478 L713 478 Q800 478 823.5 453.5 Q847 429 847.5 397 Q848 365 841 331 Q824 252 795.5 183 Q767 114 717 44 Q764 16 787.5 7 Q811 -2 887 -19 Q963 -36 961 -90 Q959 -118 938 -132.5 Q917 -147 891 -147 Q853 -149 774.5 -119 Q696 -89 623 -41 Q561 -85 480.5 -115 Q400 -145 361 -146 Q296 -150 292.5 -111 Q289 -72 297 -59 Q304 -47 316.5 -41 Q329 -35 389.5 -23.5 Q450 -12 529 33 Q500 64 479 91.5 Q458 119 429 176 Q400 233 390.5 268 Q381 303 383 319 Q385 335 400.5 348.5 Q416 362 439.5 360.5 Q463 359 475 347 Q487 335 498 304 Q509 273 532.5 226.5 Q556 180 582 154 L621 112 Q647 149 669 187 Q691 225 707.5 291 Q724 357 720.5 364.5 Q717 372 670 372 L299 371 Q297 311 295.5 250 Q294 189 285 122.5 Q276 56 252.5 -14.5 Q229 -85 200.5 -123 Q172 -161 142.5 -162.5 Q113 -164 94.5 -147.5 Q76 -131 75.5 -112.5 Q75 -94 80 -80 Q83 -73 104.5 -42.5 Q126 -12 141.5 32 Q157 76 166 146.5 Q175 217 178 281.5 Q181 346 179 422 L177 481 Q176 501 175.5 543 Q175 585 176 598 Q176 626 187.5 668 Q199 710 291 716 Q307 717 355 715.5 Q403 714 458 716 Q608 719 692 733 L773 748 Q798 752 812 751 Q845 746 859 725.5 Q873 705 873 684 Q872 661 861 648 Q850 635 831.5 630.5 Q813 626 693 615.5 Q573 605 445.5 603 Q318 601 312.5 600 Q307 599 304 596 Q301 593 300 581.5 Q299 570 299 557 L299 478 Z" /><glyph glyph-name="uni53D1" unicode="&#x53d1;" d="M374 463 L184 463 Q135 463 122 483.5 Q109 504 107.5 522.5 Q106 541 116 573 L144 659 Q148 675 155 701.5 Q162 728 173.5 742.5 Q185 757 226 751 Q250 746 262.5 733 Q275 720 277 711 Q279 702 276 687 Q274 678 266 649.5 Q258 621 251.5 602.5 Q245 584 248 580 Q251 576 270 576 L406 576 Q412 612 414.5 630.5 Q417 649 421.5 689.5 Q426 730 439 748.5 Q452 767 483.5 769.5 Q515 772 533 756.5 Q551 741 553.5 724.5 Q556 708 550 672 L531 576 L894 576 Q915 576 929.5 559 Q944 542 944.5 517 Q945 492 926 477.5 Q907 463 891 463 L503 463 L477 382 L688 382 Q750 382 782 364.5 Q814 347 817 307.5 Q820 268 805 225 Q770 126 702 41 Q720 29 746.5 14 Q773 -1 843 -27 Q913 -53 927 -63.5 Q941 -74 945 -86 Q949 -98 940.5 -124.5 Q932 -151 902.5 -166.5 Q873 -182 765.5 -125 Q658 -68 617 -38 Q540 -96 426.5 -143.5 Q313 -191 276 -161 Q266 -154 255.5 -131 Q245 -108 256 -85 Q261 -72 273.5 -64 Q286 -56 335.5 -45 Q385 -34 425 -18 Q465 -2 526 37 Q502 66 485 89 Q468 112 451 141 Q434 170 429 186 Q424 202 428 217.5 Q432 233 452.5 246.5 Q473 260 495.5 251 Q518 242 526 231.5 Q534 221 546 201.5 Q558 182 613 116 Q670 189 676.5 221.5 Q683 254 683.5 265.5 Q684 277 656 277 L434 277 Q378 172 350.5 134 Q323 96 261 25 Q199 -46 162 -61 Q125 -76 106.5 -76.5 Q88 -77 67.5 -60.5 Q47 -44 48.5 -21.5 Q50 1 58.5 13.5 Q67 26 141.5 76.5 Q216 127 278 243 Q340 359 356 409 L374 463 ZM639 708 Q638 716 645 731 Q652 746 669.5 754 Q687 762 702 761 Q727 758 774.5 713 Q822 668 820 637 Q818 610 795 595 Q772 580 752 584 Q738 586 725 599 L687 645 L649 681 Q639 696 639 708 Z" /><glyph glyph-name="uni53EC" unicode="&#x53ec;" d="M360 595 L159 595 Q135 595 122.5 610.5 Q110 626 109.5 648.5 Q109 671 121.5 688.5 Q134 706 159 706 L744 706 Q862 706 878 653.5 Q894 601 895 579 Q896 557 895 524 Q891 466 882 429.5 Q873 393 848.5 363.5 Q824 334 769 313 Q714 292 660 294 Q580 296 577 340.5 Q574 385 593 402 Q604 412 626 416 L682 420 Q723 423 744 443.5 Q765 464 767.5 493.5 Q770 523 770.5 536.5 Q771 550 771 563 Q770 579 762 587 Q754 595 727 595 L496 595 Q487 559 474 512 Q461 465 425.5 418.5 Q390 372 342 335.5 Q294 299 230 261 Q166 223 130.5 222.5 Q95 222 81.5 241.5 Q68 261 68 281.5 Q68 302 75 313 Q82 324 91 329 Q100 334 183.5 370 Q267 406 310 471 Q353 536 360 595 ZM361 265 L755 265 Q820 265 860.5 230.5 Q901 196 901 137 L901 2 Q901 -15 887.5 -71 Q874 -127 755 -127 L359 -127 Q237 -127 225 -75.5 Q213 -24 213 2 L213 137 Q213 162 225.5 213.5 Q238 265 361 265 ZM383 -16 L727 -16 Q760 -16 767.5 2 Q775 20 775 29 L775 98 Q775 110 767.5 130.5 Q760 151 727 151 L383 151 Q344 151 341 131 Q338 111 338 98 L338 29 Q338 21 344.5 2.5 Q351 -16 383 -16 Z" /><glyph glyph-name="uni53EF" unicode="&#x53ef;" d="M840 600 L840 -9 Q840 -49 831 -83.5 Q822 -118 770 -137 Q718 -156 661 -152 Q579 -147 582 -81 Q583 -31 638 -30 Q642 -30 673 -31.5 Q704 -33 710.5 -20 Q717 -7 717 21 L717 600 L121 600 Q98 600 80.5 617.5 Q63 635 64 662 Q65 681 80.5 697.5 Q96 714 121 714 L906 714 Q929 714 945.5 696 Q962 678 963 655.5 Q964 633 946.5 616.5 Q929 600 906 600 L840 600 ZM592 363 L592 225 Q592 188 578.5 141.5 Q565 95 452 95 L323 95 Q243 95 209 124 Q175 153 175 225 L175 368 Q175 386 190 439.5 Q205 493 323 493 L452 493 Q476 493 506.5 484 Q537 475 564.5 450.5 Q592 426 592 363 ZM474 257 L474 326 Q474 340 469 354.5 Q464 369 454 377 Q444 385 416 385 L347 385 Q310 385 301.5 367 Q293 349 293 328 L293 257 Q293 205 347 205 L416 205 Q450 205 462 222.5 Q474 240 474 257 Z" /><glyph glyph-name="uni53F0" unicode="&#x53f0;" d="M713 486 Q695 505 682.5 519 Q670 533 649 553 Q628 573 622.5 583.5 Q617 594 617.5 615.5 Q618 637 639 655 Q660 673 690 667 Q703 664 724.5 649 Q746 634 844.5 531.5 Q943 429 953 413.5 Q963 398 964 374 Q965 350 944.5 330.5 Q924 311 901 311 Q883 310 868.5 318.5 Q854 327 817 371 Q592 352 384.5 352.5 Q177 353 133 361.5 Q89 370 84.5 404.5 Q80 439 95 463 Q103 476 118.5 489 Q134 502 180.5 542 Q227 582 263 616 L392 741 Q451 795 488.5 767 Q526 739 526 711 Q525 678 473.5 632.5 Q422 587 358 533.5 Q294 480 299 476 Q304 470 378 470 Q526 469 713 486 ZM688 -132 L324 -132 Q240 -132 209.5 -109.5 Q179 -87 172 -58.5 Q165 -30 165 4 L165 149 Q165 178 184.5 232 Q204 286 324 286 L685 286 Q812 286 829.5 224.5 Q847 163 847 137 L847 15 Q847 -20 839.5 -51 Q832 -82 802 -107 Q772 -132 688 -132 ZM673 174 L344 174 Q288 174 288 122 L288 26 Q288 -6 309.5 -14 Q331 -22 344 -22 L673 -22 Q722 -22 722 26 L722 122 Q722 133 713 153.5 Q704 174 673 174 Z" /><glyph glyph-name="uni53F3" unicode="&#x53f3;" d="M353 500 L111 500 Q88 500 71.5 516.5 Q55 533 54.5 556.5 Q54 580 70 599 Q86 618 111 618 L374 618 Q377 644 379 684.5 Q381 725 385.5 741 Q390 757 404 768.5 Q418 780 454 778 Q506 774 516 729 L506 648 L502 618 L891 618 Q917 618 935 598.5 Q953 579 952 554 Q950 532 933.5 516 Q917 500 891 500 L480 500 Q446 385 429 350 L413 316 L734 316 Q817 316 844.5 290.5 Q872 265 879.5 231.5 Q887 198 887 176 L887 -6 Q887 -75 850.5 -107.5 Q814 -140 737 -140 L437 -140 Q302 -140 291 -89 Q280 -38 280 -6 L280 136 Q252 112 211.5 76.5 Q171 41 142.5 29.5 Q114 18 90.5 18.5 Q67 19 52.5 38.5 Q38 58 39 81.5 Q40 105 49.5 115 Q59 125 91.5 144.5 Q124 164 140 175 Q156 186 203.5 231 Q251 276 290.5 341 Q330 406 353 500 ZM403 151 L403 15 Q403 -29 450 -29 L715 -29 Q751 -29 757.5 -16 Q764 -3 764 17 L764 154 Q764 173 756 188 Q748 203 715 203 L450 203 Q416 203 409.5 190 Q403 177 403 151 Z" /><glyph glyph-name="uni5408" unicode="&#x5408;" d="M581 724 Q643 628 729.5 555 Q816 482 888 454.5 Q960 427 973 412.5 Q986 398 988 373 Q990 348 973 329 Q956 310 929 309 Q892 306 776 376 Q660 446 597 521.5 Q534 597 525 614.5 Q516 632 513 632 Q511 631 504.5 621 Q498 611 491 603 L458 561 Q435 533 365.5 470.5 Q296 408 224 361.5 Q152 315 117 313 Q93 311 72.5 324 Q52 337 52 363.5 Q52 390 70 410 Q80 421 111 437 Q142 453 194.5 484.5 Q247 516 320 588 Q393 660 426.5 718 Q460 776 473 784 Q486 792 502 794 Q527 796 556.5 777 Q586 758 582.5 741.5 Q579 725 581 724 ZM305 399 L706 399 Q724 399 739 382 Q754 365 754 341 Q753 310 737 299.5 Q721 289 706 289 L305 289 Q286 289 273 301.5 Q260 314 261 343 Q261 366 274 382.5 Q287 399 305 399 ZM340 231 L666 231 Q791 231 809.5 174 Q828 117 828 90 L828 -22 Q828 -44 817 -98 Q806 -152 676 -152 L337 -152 Q223 -152 209 -98.5 Q195 -45 195 -22 L195 90 Q195 110 202.5 139 Q210 168 242.5 199.5 Q275 231 340 231 ZM310 69 L310 2 Q310 -17 320 -30.5 Q330 -44 352 -44 L661 -44 Q687 -44 697.5 -30 Q708 -16 708 -4 L708 71 Q708 84 697 102 Q686 120 661 120 L354 120 Q339 120 324.5 108 Q310 96 310 69 Z" /><glyph glyph-name="uni5427" unicode="&#x5427;" d="M522 282 L522 29 Q522 -4 529 -17.5 Q536 -31 599 -30 L690 -30 Q817 -30 831.5 -23 Q846 -16 851.5 -8 Q857 0 860 21 L864 59 Q866 82 878 99 Q890 116 928 113 Q958 110 971.5 92 Q985 74 986.5 57 Q988 40 980 7 Q969 -36 958.5 -71 Q948 -106 913 -122 Q878 -138 804.5 -140 Q731 -142 628 -141 Q530 -141 485.5 -132 Q441 -123 424.5 -96 Q408 -69 408 -31 L408 589 Q408 607 416 640 Q424 673 455 700.5 Q486 728 555 728 L772 728 Q844 728 881.5 691 Q919 654 919 589 L919 414 Q919 386 913.5 363 Q908 340 877 311 Q846 282 772 282 L522 282 ZM522 392 L609 392 L609 616 L555 616 Q522 616 522 584 L522 392 ZM719 392 L769 392 Q791 392 797 406 Q803 420 803 429 L803 584 Q803 616 769 616 L719 616 L719 392 ZM232 100 L192 100 Q128 100 98.5 129 Q69 158 66.5 178 Q64 198 64 221 L64 579 Q64 597 78 650.5 Q92 704 195 704 L232 704 Q331 704 347.5 651 Q364 598 364 579 L364 221 Q364 166 329 133 Q294 100 232 100 ZM197 206 L224 206 Q235 206 244 215 Q253 224 253 240 L253 562 Q253 578 243.5 588 Q234 598 220 598 L200 598 Q172 598 172 562 L172 240 Q172 229 178.5 217.5 Q185 206 197 206 Z" /><glyph glyph-name="uni548C" unicode="&#x548c;" d="M241 384 L108 384 Q86 384 68.5 399.5 Q51 415 54 446 Q58 495 108 495 L250 495 L250 606 Q197 596 140 593 Q46 587 55 655 Q58 681 72.5 690 Q87 699 102 701 L145 702 Q158 702 234 713 Q310 724 369 742.5 Q428 761 442 761 Q463 760 482 744.5 Q501 729 501 701 Q500 682 481.5 660.5 Q463 639 372 627 L372 495 L478 495 Q499 495 517.5 482 Q536 469 537.5 440.5 Q539 412 519.5 398 Q500 384 478 384 L372 384 L372 338 Q383 350 399 350 Q409 349 431 336.5 Q453 324 485.5 280.5 Q518 237 530.5 215.5 Q543 194 544.5 178.5 Q546 163 530.5 138.5 Q515 114 484 118 Q465 119 455.5 129.5 Q446 140 425 174 Q404 208 372 245 L372 -103 Q372 -127 356.5 -145 Q341 -163 310 -162 Q273 -161 261.5 -141.5 Q250 -122 250 -103 L250 164 Q223 134 206.5 114 Q190 94 176.5 80 Q163 66 142.5 53.5 Q122 41 100.5 41.5 Q79 42 60.5 58.5 Q42 75 43.5 100.5 Q45 126 55 139 Q65 152 128.5 202.5 Q192 253 241 384 ZM949 502 L949 100 Q949 77 942 50.5 Q935 24 911.5 3.5 Q888 -17 813 -17 L688 -17 Q616 -17 592.5 2.5 Q569 22 564.5 48.5 Q560 75 560 100 L560 502 Q560 544 566.5 589.5 Q573 635 688 635 L823 635 Q935 635 942 589.5 Q949 544 949 502 ZM705 91 L806 91 Q835 91 835 132 L835 490 Q835 497 829 511 Q823 525 806 525 L705 525 Q678 525 678 490 L678 132 Q678 110 683.5 100.5 Q689 91 705 91 Z" /><glyph glyph-name="uni54C1" unicode="&#x54c1;" d="M791 594 L791 468 Q791 447 783 419 Q775 391 752 370.5 Q729 350 654 350 L341 350 Q269 350 245.5 370 Q222 390 217.5 416.5 Q213 443 213 468 L213 594 Q213 630 217 656.5 Q221 683 249 705.5 Q277 728 341 728 L664 728 Q726 728 754 706 Q782 684 786.5 657 Q791 630 791 594 ZM363 456 L638 456 Q667 456 667 497 L667 588 Q667 605 657.5 614 Q648 623 638 623 L363 623 Q347 623 341.5 611 Q336 599 336 588 L336 497 Q336 473 341.5 464.5 Q347 456 363 456 ZM937 145 L937 -14 Q937 -37 930 -63.5 Q923 -90 899.5 -111 Q876 -132 801 -132 L661 -132 Q589 -132 566 -111.5 Q543 -91 537.5 -63.5 Q532 -36 532 -14 L532 145 Q532 181 536 207 Q540 233 567 256 Q594 279 661 279 L811 279 Q923 279 930 233 Q937 187 937 145 ZM676 -24 L794 -24 Q810 -24 816.5 -11 Q823 2 823 15 L823 129 Q823 134 817 149 Q811 164 794 164 L676 164 Q649 164 649 129 L649 15 Q649 -7 654.5 -15.5 Q660 -24 676 -24 ZM477 140 L477 -15 Q477 -79 444.5 -106.5 Q412 -134 340 -134 L200 -134 Q129 -134 105 -113.5 Q81 -93 76.5 -66.5 Q72 -40 72 -15 L72 140 Q72 182 75 205 Q78 228 106 251 Q134 274 200 274 L350 274 Q412 274 440 251.5 Q468 229 472.5 202.5 Q477 176 477 140 ZM215 -26 L333 -26 Q362 -26 362 14 L362 127 Q362 134 356 148 Q350 162 333 162 L215 162 Q188 162 188 127 L188 14 Q188 -10 194 -18 Q200 -26 215 -26 Z" /><glyph glyph-name="uni5524" unicode="&#x5524;" d="M330 560 Q334 566 337 569.5 Q340 573 348 580 L397 623 Q417 642 440 672.5 Q463 703 478 735 Q493 767 501 779.5 Q509 792 535 792 Q587 791 602 758 Q611 736 602 721 L592 701 L712 701 Q822 701 818 645 Q815 616 757 532 L805 532 Q870 532 890 512 Q910 492 915 466 Q920 440 920 426 L920 222 L938 222 Q958 222 974 207.5 Q990 193 992 170.5 Q994 148 976.5 130.5 Q959 113 938 113 L758 113 Q768 90 782 66.5 Q796 43 831.5 13 Q867 -17 890.5 -31 Q914 -45 944.5 -57.5 Q975 -70 986 -89.5 Q997 -109 988.5 -135.5 Q980 -162 960 -172.5 Q940 -183 917 -177.5 Q894 -172 846.5 -141.5 Q799 -111 773.5 -92 Q748 -73 673 35 Q647 -7 623 -37 Q599 -67 551.5 -98.5 Q504 -130 451.5 -155 Q399 -180 377 -179 Q340 -178 327 -158 Q314 -138 313.5 -118.5 Q313 -99 324 -83 Q335 -67 349.5 -61 Q364 -55 408 -42.5 Q452 -30 500 6 Q548 42 562 74 L581 113 L388 113 Q373 113 354.5 126.5 Q336 140 337 169 Q337 193 354.5 207.5 Q372 222 388 222 L403 222 L403 426 Q403 451 408 480 Q379 456 357.5 470.5 Q336 485 330 496 L330 191 Q330 127 309 103.5 Q288 80 230 80 L156 79 Q68 77 59 116 Q50 155 50 188 L50 556 Q50 580 53.5 599 Q57 618 73.5 636.5 Q90 655 159 655 L230 655 Q291 655 309.5 632.5 Q328 610 329 584 L330 560 ZM457 526 Q471 532 490 532 L631 532 Q635 537 640 544 Q645 551 656 565.5 Q667 580 666.5 587.5 Q666 595 664 598.5 Q662 602 641 602 L525 602 Q498 570 457 526 ZM156 520 L156 218 Q156 204 160 195 Q164 186 185 186 L196 186 Q207 186 211 188.5 Q215 191 218.5 199 Q222 207 222 218 L222 520 Q222 554 196 554 L186 554 Q172 554 166.5 550 Q161 546 158.5 536.5 Q156 527 156 520 ZM516 222 L600 222 L606 428 L560 428 Q529 428 522.5 418.5 Q516 409 516 387 L516 222 ZM710 222 L804 222 L803 387 Q802 404 794.5 416 Q787 428 758 428 L718 428 L710 222 Z" /><glyph glyph-name="uni559C" unicode="&#x559c;" d="M294 231 Q283 239 280 248 Q273 264 284 278 L262 279 Q235 280 210.5 285 Q186 290 181 310.5 Q176 331 176 347 L176 380 Q176 430 201 451.5 Q226 473 291 473 L726 473 Q788 473 807.5 455.5 Q827 438 830.5 422 Q834 406 834 387 L834 351 Q834 335 826 319 Q818 303 797 291 Q776 279 752 279 L727 279 Q732 274 734 271 Q736 268 737.5 261.5 Q739 255 737.5 250 Q736 245 723 231 L935 231 Q949 231 961.5 217 Q974 203 973 179 Q970 133 935 133 L71 133 Q58 133 47.5 145 Q37 157 38 183 Q39 208 51 219.5 Q63 231 76 231 L294 231 ZM314 358 L697 358 Q720 358 724 362 Q728 366 728 374 L728 380 Q728 394 697 394 L304 394 Q284 394 284 376 L284 370 Q284 358 314 358 ZM612 231 Q610 235 609.5 239 Q609 243 619 255 Q627 265 641 278 L379 278 Q390 268 394.5 261.5 Q399 255 400.5 247 Q402 239 396 230 L612 231 ZM444 724 L444 748 Q444 758 457 772.5 Q470 787 501.5 789.5 Q533 792 548.5 775 Q564 758 564 748 L564 724 L890 724 Q907 724 921 711.5 Q935 699 935 674 Q934 629 890 629 L564 629 L564 595 L823 595 Q837 595 849.5 582 Q862 569 859 545 Q856 528 844 515.5 Q832 503 822 503 L195 503 Q174 503 162.5 515.5 Q151 528 150.5 549 Q150 570 164 582.5 Q178 595 195 595 L444 595 L444 629 L112 629 Q92 629 81 638 Q70 647 69.5 673.5 Q69 700 82.5 712 Q96 724 112 724 L444 724 ZM692 -156 L320 -156 Q234 -156 202 -130 Q170 -104 170 -43 L170 -27 Q170 2 178 30.5 Q186 59 210 79.5 Q234 100 332 100 L692 100 Q787 100 815.5 77.5 Q844 55 846.5 35 Q849 15 849 -24 L849 -37 Q849 -64 841.5 -87.5 Q834 -111 811 -133.5 Q788 -156 692 -156 ZM698 7 L314 7 Q285 7 285 -26 L285 -34 Q285 -63 319 -63 L700 -63 Q711 -63 718.5 -58.5 Q726 -54 727.5 -40 Q729 -26 730 -26 Q736 -26 725.5 -9.5 Q715 7 698 7 Z" /><glyph glyph-name="uni55E8" unicode="&#x55e8;" d="M657 167 Q659 193 678 200.5 Q697 208 721 199 Q762 182 772.5 162.5 Q783 143 781 127.5 Q779 112 760.5 102.5 Q742 93 721 103 Q718 104 694.5 118.5 Q671 133 663 143.5 Q655 154 657 167 ZM798 -10 L608 -10 Q531 -10 515.5 29.5 Q500 69 503 96 L515 211 L495 211 Q489 211 474 218 Q459 225 458.5 260 Q458 295 472.5 306.5 Q487 318 495 318 L524 318 L533 424 Q533 435 539 460 Q545 485 567 505 Q589 525 667 525 L809 525 Q882 525 906.5 504.5 Q931 484 936.5 456.5 Q942 429 942 412 L938 318 L954 318 Q964 318 980.5 307.5 Q997 297 998.5 263.5 Q1000 230 980.5 220.5 Q961 211 954 211 L935 211 L927 93 L954 93 Q992 93 996 41.5 Q1000 -10 954 -10 L920 -10 Q916 -38 905.5 -70 Q895 -102 846.5 -130.5 Q798 -159 741 -161 Q690 -164 670 -133 Q650 -102 672 -65 Q677 -56 684.5 -51.5 Q692 -47 736 -46 Q780 -45 790 -24 L798 -10 ZM815 93 L822 211 L626 211 L620 125 Q618 104 622.5 98.5 Q627 93 652 93 L815 93 ZM713 318 Q704 324 697 330.5 Q690 337 682 348.5 Q674 360 674.5 376.5 Q675 393 690.5 407.5 Q706 422 739 410 Q750 405 769 387.5 Q788 370 783 345 Q780 331 765 318 L827 318 L831 392 Q831 410 823 414.5 Q815 419 797 419 L662 419 Q643 419 641 412 Q639 405 638 385 L633 318 L713 318 ZM657 681 L948 681 Q962 681 979 668.5 Q996 656 996 627 Q994 575 949 575 L596 575 Q542 491 522 481 Q502 471 488 473 Q464 474 448 492.5 Q432 511 431.5 528 Q431 545 441 561 Q445 568 470 596.5 Q495 625 519.5 665 Q544 705 554 737.5 Q564 770 571 780 Q578 790 598.5 797.5 Q619 805 646 793.5 Q673 782 679 757 Q683 737 675 721 L657 681 ZM284 -61 L304 -10 Q325 47 339 122 L351 191 Q356 219 371.5 240 Q387 261 420 254 Q453 247 461 221.5 Q469 196 461 157 L438 52 Q413 -50 393 -94 Q373 -138 334.5 -128 Q296 -118 287.5 -99.5 Q279 -81 284 -61 ZM480 390 Q479 381 465 360.5 Q451 340 422 343 Q403 344 387 361 L360 400 L341 426 Q327 449 332.5 471.5 Q338 494 358 506 Q378 518 404 507 Q415 501 448.5 463 Q482 425 480 390 ZM204 120 L157 120 Q65 120 56.5 168.5 Q48 217 48 248 L48 556 Q48 588 56.5 638.5 Q65 689 156 689 L203 689 Q271 689 290 665.5 Q309 642 313 615 Q317 588 317 554 L317 248 Q317 217 311.5 168.5 Q306 120 204 120 ZM210 262 L210 544 Q210 560 206.5 572 Q203 584 188 584 L176 584 Q164 584 161.5 570.5 Q159 557 159 551 L159 269 Q159 255 162 242.5 Q165 230 184 230 L188 230 Q210 230 210 262 ZM469 652 Q468 642 455 622 Q442 602 412 605 Q393 606 377 623 L345 667 L326 692 Q312 713 314 736 Q316 759 338 772 Q360 785 388 773 Q400 767 435.5 730 Q471 693 469 652 Z" /><glyph glyph-name="uni56DB" unicode="&#x56db;" d="M759 -107 L260 -107 Q141 -107 119.5 -52 Q98 3 98 39 L98 569 Q98 592 113 654 Q128 716 258 716 L752 716 Q893 716 908 651 Q923 586 923 561 L923 39 Q923 -107 759 -107 ZM667 603 L668 286 Q668 264 671 256.5 Q674 249 681 243.5 Q688 238 707 240 L737 243 Q780 245 788 212.5 Q796 180 781 159 Q760 129 698 129 Q584 128 568 159.5 Q552 191 552 227 L551 603 L474 603 Q473 532 471 484 Q469 436 462 373 Q455 310 445 276.5 Q435 243 417 214 Q399 185 376.5 164 Q354 143 335.5 130 Q317 117 293.5 116.5 Q270 116 252.5 134.5 Q235 153 237 172.5 Q239 192 245.5 201 Q252 210 285.5 236 Q319 262 337 324.5 Q355 387 357 487 L358 572 L359 603 L273 603 Q217 603 217 547 L217 59 Q217 38 228 20 Q239 2 273 2 L747 2 Q778 2 789.5 17.5 Q801 33 801 59 L801 547 Q801 603 749 603 L667 603 Z" /><glyph glyph-name="uni56DE" unicode="&#x56de;" d="M716 368 L716 228 Q716 212 699.5 160 Q683 108 576 108 L438 108 Q333 108 319 160 Q305 212 305 227 L305 368 Q305 384 320 438.5 Q335 493 438 493 L570 493 Q685 493 700.5 439.5 Q716 386 716 368 ZM600 252 L600 340 Q600 355 586.5 372 Q573 389 549 389 L465 389 Q447 389 434 373.5 Q421 358 421 340 L421 252 Q421 238 433 225.5 Q445 213 465 213 L551 213 Q575 213 587.5 226 Q600 239 600 252 ZM769 -107 L252 -107 Q127 -107 110.5 -43 Q94 21 94 39 L94 566 Q94 581 102 610.5 Q110 640 146.5 672 Q183 704 252 704 L767 704 Q889 704 909 638 Q929 572 929 551 L929 37 Q929 10 922 -14 Q915 -38 877.5 -72.5 Q840 -107 769 -107 ZM804 51 L804 542 Q804 557 791.5 575 Q779 593 752 593 L269 593 Q242 593 229.5 578.5 Q217 564 217 544 L217 51 Q217 42 226 21 Q235 0 269 0 L753 0 Q779 0 791.5 17.5 Q804 35 804 51 Z" /><glyph glyph-name="uni56F0" unicode="&#x56f0;" d="M405 387 L284 387 Q260 387 248 413 Q236 439 236 449.5 Q236 460 248 475.5 Q260 491 284 491 L452 491 L452 553 Q452 573 468 588 Q484 603 508 603 Q533 602 549 586.5 Q565 571 565 553 L565 491 L736 491 Q754 491 767.5 477.5 Q781 464 782.5 439 Q784 414 770 400.5 Q756 387 736 387 L565 387 L565 37 Q565 18 548.5 4 Q532 -10 506.5 -10.5 Q481 -11 467 3.5 Q453 18 453 37 L452 234 Q431 205 389 154 Q347 103 326.5 87.5 Q306 72 283.5 72.5 Q261 73 245 90 Q229 107 229.5 126.5 Q230 146 235.5 156 Q241 166 281.5 199 Q322 232 350.5 279 Q379 326 405 387 ZM589 336 Q620 366 662 334 Q692 310 725 255.5 Q758 201 767 183.5 Q776 166 777.5 149.5 Q779 133 766 110.5 Q753 88 721 90 Q701 91 684.5 107 Q668 123 648.5 157 Q629 191 608 222 Q587 253 579 267 Q571 281 571.5 300.5 Q572 320 589 336 ZM90 0 L90 577 Q90 658 126.5 694.5 Q163 731 254 731 L767 731 Q846 731 880.5 697 Q915 663 920.5 634 Q926 605 926 577 L926 0 Q926 -28 920 -58.5 Q914 -89 880 -115 Q846 -141 767 -141 L250 -141 Q158 -141 127 -115 Q96 -89 93 -63.5 Q90 -38 90 0 ZM808 21 L808 577 Q808 589 797.5 606 Q787 623 757 623 L257 623 Q223 623 214.5 605.5 Q206 588 206 577 L206 19 Q206 -28 257 -28 L757 -28 Q786 -28 797 -11 Q808 6 808 21 Z" /><glyph glyph-name="uni5728" unicode="&#x5728;" d="M228 324 L228 360 Q228 378 237.5 392.5 Q247 407 270 407 L284 405 L293 404 Q307 420 320 438.5 Q333 457 363 527 L132 527 Q108 527 94 545 Q80 563 81 588 Q82 615 97 629 Q112 643 132 643 L405 643 Q411 669 415.5 694 Q420 719 432.5 742.5 Q445 766 488 765 Q545 762 549 713 Q550 699 542 671 L534 643 L900 643 Q917 643 932.5 626.5 Q948 610 948.5 584 Q949 558 932.5 542.5 Q916 527 900 527 L497 527 Q466 453 432.5 399 Q399 345 347 281 L347 -103 Q347 -123 328.5 -140.5 Q310 -158 281 -156 Q256 -155 242 -140 Q228 -125 228 -103 L228 159 Q208 142 184 124 Q160 106 128.5 106.5 Q97 107 83.5 126.5 Q70 146 70 168.5 Q70 191 80 204 Q90 217 134 242 Q178 267 228 324 ZM599 -5 L599 224 L463 224 Q441 224 426 239.5 Q411 255 412 279 Q412 304 427 316.5 Q442 329 463 329 L599 329 L599 444 Q599 464 616 479 Q633 494 656.5 495 Q680 496 698.5 480 Q717 464 717 443 L717 329 L861 329 Q881 329 896 316.5 Q911 304 912.5 278.5 Q914 253 898.5 238.5 Q883 224 861 224 L717 224 L717 -5 L910 -5 Q928 -5 944.5 -20 Q961 -35 961.5 -59.5 Q962 -84 946.5 -100.5 Q931 -117 909 -117 L422 -117 Q402 -117 386.5 -100 Q371 -83 371.5 -59 Q372 -35 387 -19.5 Q402 -4 422 -4 L599 -5 Z" /><glyph glyph-name="uni5730" unicode="&#x5730;" d="M166 137 L166 439 L117 439 Q44 439 46 500 Q47 520 58.5 536 Q70 552 89 552 L166 552 L166 703 Q166 723 181.5 737 Q197 751 219 751 Q239 750 256 736 Q273 722 273 703 L273 552 L331 552 Q350 552 363.5 535 Q377 518 377.5 495 Q378 472 361.5 455.5 Q345 439 331 439 L273 439 L273 173 Q335 196 353.5 195.5 Q372 195 387.5 180.5 Q403 166 402 140 Q400 117 387.5 104.5 Q375 92 247 44.5 Q119 -3 96 -2 Q49 -1 47 35.5 Q45 72 56 88 Q64 98 79.5 106 Q95 114 166 137 ZM409 400 L409 596 Q409 612 424 626 Q439 640 461.5 641.5 Q484 643 503.5 629 Q523 615 523 596 L523 457 L593 492 L593 725 Q593 743 607.5 757.5 Q622 772 646.5 772.5 Q671 773 687 758 Q703 743 703 725 L703 543 L753 567 Q808 593 838 593 Q873 592 895 568 Q917 544 918 439 L919 272 Q919 192 893 162 Q867 132 837 118.5 Q807 105 778 107 Q726 109 719.5 142.5 Q713 176 722 194 Q732 214 748 218 L766 219 Q796 223 800.5 254.5 Q805 286 804.5 319 Q804 352 804.5 379.5 Q805 407 805 417 Q804 432 803 445.5 Q802 459 797.5 463 Q793 467 770 457 L703 426 L703 86 Q703 74 691 60 Q679 46 649 45.5 Q619 45 606 57 Q593 69 593 86 L593 372 L523 338 L523 19 Q523 -4 533 -18 Q543 -32 676 -33 Q744 -35 783.5 -32 Q823 -29 836.5 -21 Q850 -13 860 4 L879 44 Q894 65 920 68 Q934 69 960.5 57 Q987 45 987 5 Q986 -12 969 -55.5 Q952 -99 918 -120.5 Q884 -142 824 -144 Q769 -147 624 -144 Q508 -143 465.5 -127.5 Q423 -112 416 -80 Q409 -48 409 -15 L409 281 L375 264 Q353 253 333.5 259.5 Q314 266 304.5 286 Q295 306 302 329 Q309 352 331 363 L409 400 Z" /><glyph glyph-name="uni5757" unicode="&#x5757;" d="M155 167 L155 448 L86 449 Q75 449 58.5 460.5 Q42 472 41.5 496.5 Q41 521 53 539.5 Q65 558 86 558 L155 558 L155 723 Q155 737 170.5 754 Q186 771 215.5 771.5 Q245 772 259.5 753.5 Q274 735 274 721 L273 558 L318 558 Q329 558 347 545.5 Q365 533 365.5 505.5 Q366 478 350.5 463 Q335 448 318 448 L273 448 L273 209 Q330 237 347 212.5 Q364 188 358 163 Q352 144 334 127.5 Q316 111 201 62.5 Q86 14 64 27 Q44 37 38.5 59.5 Q33 82 36 100 Q41 126 71 139 L123 155 L155 167 ZM536 201 L415 201 Q405 201 383.5 208.5 Q362 216 360 244.5 Q358 273 373 292 Q388 311 415 311 L550 311 Q552 332 553 345.5 Q554 359 555 417 L556 491 L447 491 Q432 491 417 503 Q402 515 396.5 541 Q391 567 409.5 585 Q428 603 444 603 L556 603 Q556 616 557 624 L557 696 Q557 717 558.5 731 Q560 745 569 764 Q578 783 619 782 Q667 780 677 733 L677 603 L760 603 Q832 603 858 581 Q884 559 888.5 526.5 Q893 494 893 481 L893 311 L915 311 Q934 311 950 294 Q966 277 966 254 Q965 231 950 216 Q935 201 913 201 L718 201 Q738 144 772 98 Q806 52 869 8 L944 -39 Q964 -53 972.5 -65.5 Q981 -78 981 -97 Q979 -148 932 -157 Q914 -161 896.5 -156.5 Q879 -152 835 -120 Q791 -88 767 -68 Q743 -48 707 -5.5 Q671 37 635 111 Q602 33 550.5 -31.5 Q499 -96 411 -134 Q323 -172 295 -166 Q255 -160 247.5 -136 Q240 -112 243 -98 Q245 -82 256 -70.5 Q267 -59 292 -49 L336 -33 Q422 0 469 57 Q516 114 536 201 ZM670 311 L778 311 L778 463 Q778 491 744 491 L675 491 Q672 410 672 393 L670 311 Z" /></font>
</defs>
</svg>
